<svg width="523" height="243" viewBox="0 0 523 243" fill="none" xmlns="http://www.w3.org/2000/svg">
<path d="M78.5938 98.1323V109.729H43.17V100.538L59.1415 85.7056C60.2481 84.7481 61.1876 83.6117 61.9213 82.3433C62.3641 81.503 62.6023 80.5692 62.6162 79.6186C62.6422 79.1341 62.5562 78.6502 62.365 78.2047C62.1737 77.7591 61.8825 77.364 61.5139 77.0503C60.5892 76.3787 59.4595 76.0531 58.3208 76.13C56.9774 76.125 55.6596 76.498 54.5166 77.2066C53.3329 77.9303 52.3887 78.9892 51.8027 80.2502L40.5819 74.5842C42.2666 71.4139 44.833 68.8038 47.9686 67.0716C51.2117 65.2632 55.1257 64.3589 59.7107 64.3589C62.8887 64.2969 66.0467 64.8778 68.9965 66.0671C71.5138 67.072 73.7009 68.7637 75.3108 70.9512C76.8289 73.0728 77.6251 75.6293 77.5813 78.2412C77.5973 80.6215 77.0684 82.9736 76.0357 85.1162C75.0053 87.2535 72.9943 89.6734 70.0029 92.3761L63.6886 98.1504L78.5938 98.1323Z" fill="#FF1313"/>
<path d="M119.164 87.5101C121.006 89.7663 121.979 92.6116 121.908 95.5279C121.915 98.1716 121.157 100.761 119.727 102.98C118.277 105.282 116.037 107.153 113.005 108.592C109.974 110.032 106.206 110.749 101.7 110.745C98.5678 110.744 95.4444 110.404 92.3847 109.729C89.5459 109.141 86.8114 108.127 84.2731 106.722L89.3234 95.6903C91.1533 96.7532 93.1182 97.5626 95.1644 98.0962C97.1323 98.6268 99.1597 98.9017 101.197 98.9142C102.647 98.9836 104.091 98.6792 105.391 98.0301C105.869 97.8033 106.272 97.4436 106.552 96.9937C106.832 96.5437 106.978 96.0225 106.972 95.4918C106.972 93.4628 105.225 92.4483 101.73 92.4483H95.8534V83.2937L102.359 76.6352H86.5436V65.3514H119.493V74.5421L111.28 82.9147C114.703 83.7769 117.331 85.3087 119.164 87.5101Z" fill="#FF1313"/>
<path d="M154.366 102.451L157.146 104.821L152.041 110.619L148.926 107.912C145.985 109.807 142.554 110.792 139.059 110.745C136.907 110.778 134.768 110.398 132.757 109.627C131.054 108.993 129.539 107.935 128.354 106.553C127.312 105.328 126.745 103.767 126.754 102.156C126.713 100.436 127.198 98.7437 128.144 97.3082C129.285 95.7509 130.772 94.4823 132.487 93.6031C130.798 91.7986 129.953 89.908 129.953 87.9311C129.928 86.4327 130.396 84.9678 131.283 83.7628C132.251 82.5025 133.54 81.5296 135.015 80.9478C136.785 80.2405 138.677 79.8949 140.581 79.9313C142.329 79.898 144.067 80.2086 145.697 80.8456C147.07 81.3707 148.264 82.281 149.136 83.4681C149.946 84.6248 150.366 86.0119 150.334 87.4258C150.362 88.8559 149.934 90.2574 149.112 91.4257C148.078 92.7734 146.763 93.8778 145.26 94.6617L148.375 97.3263C148.914 96.0962 149.297 94.8029 149.513 93.4768L157.146 95.7624C156.626 98.1412 155.684 100.407 154.366 102.451ZM143.109 102.914L137.717 98.2586C137.23 98.557 136.824 98.9731 136.538 99.4689C136.251 99.9647 136.092 100.525 136.076 101.098C136.078 101.457 136.169 101.811 136.342 102.126C136.515 102.441 136.763 102.708 137.064 102.902C137.872 103.426 138.824 103.678 139.784 103.624C140.929 103.621 142.062 103.38 143.109 102.914ZM139.125 86.5777C138.955 86.7276 138.82 86.9129 138.729 87.1207C138.638 87.3285 138.593 87.5537 138.598 87.7807C138.598 88.1572 138.709 88.5252 138.915 88.8393C139.248 89.3206 139.636 89.7607 140.072 90.1506C141.617 89.3085 142.39 88.4624 142.39 87.6123C142.397 87.4063 142.359 87.2013 142.279 87.0113C142.2 86.8214 142.08 86.6509 141.929 86.5116C141.562 86.2112 141.095 86.0608 140.623 86.0905C140.081 86.0623 139.548 86.2358 139.125 86.5777Z" fill="#FF1313"/>
<path d="M200.166 90.6799C201.212 92.4532 201.747 94.4835 201.711 96.5443C201.759 99.2607 200.88 101.912 199.219 104.057C197.385 106.333 194.959 108.055 192.21 109.031C185.521 111.357 178.248 111.357 171.56 109.031C168.811 108.055 166.384 106.333 164.55 104.057C162.894 101.921 162.015 99.281 162.058 96.5744C162.022 94.5136 162.557 92.4833 163.604 90.7099C164.701 88.9306 166.206 87.4414 167.995 86.3672C165.087 84.0455 163.634 81.1283 163.634 77.6156C163.581 75.0845 164.398 72.6123 165.946 70.6143C167.637 68.5151 169.863 66.9147 172.386 65.9829C178.535 63.7933 185.247 63.7933 191.395 65.9829C193.918 66.9163 196.143 68.5164 197.835 70.6143C199.372 72.6088 200.183 75.0705 200.136 77.5916C200.136 81.1042 198.682 84.0214 195.775 86.3432C197.562 87.4156 199.068 88.9027 200.166 90.6799ZM185.386 99.3954C186.259 98.4967 186.748 97.2913 186.748 96.0361C186.748 94.7809 186.259 93.5755 185.386 92.6768C184.401 91.8561 183.162 91.4068 181.882 91.4068C180.602 91.4068 179.362 91.8561 178.377 92.6768C177.504 93.5755 177.016 94.7809 177.016 96.0361C177.016 97.2913 177.504 98.4967 178.377 99.3954C179.362 100.216 180.602 100.665 181.882 100.665C183.162 100.665 184.401 100.216 185.386 99.3954ZM179.33 75.4322C178.694 76.2222 178.347 77.2073 178.347 78.2231C178.347 79.239 178.694 80.2241 179.33 81.014C180.023 81.6639 180.936 82.0253 181.885 82.0253C182.833 82.0253 183.746 81.6639 184.44 81.014C185.076 80.2241 185.423 79.239 185.423 78.2231C185.423 77.2073 185.076 76.2222 184.44 75.4322C183.748 74.7797 182.834 74.4164 181.885 74.4164C180.935 74.4164 180.022 74.7797 179.33 75.4322Z" fill="#FF1313"/>
<path d="M68.1817 195.777H38.6049V115.485H104.336V138.865H68.1817V147.965H99.8852V171.339H68.1817V195.777ZM42.5349 191.808H64.2038V167.387H95.9073V151.953H64.2278V134.901H100.382V119.467H42.5349V191.808Z" fill="#FF1313"/>
<path d="M203.688 195.777H176.4L176.214 166.172L162.771 188.908H149.256L135.824 167.177V195.777H108.53V115.485H132.679L156.301 154.293L179.306 115.485H203.467L203.688 195.777ZM180.324 191.808H199.722L199.519 119.467H181.546L156.361 161.986L130.474 119.467H112.502V191.808H131.888V153.246L151.472 184.939H160.536L180.102 151.857L180.324 191.808Z" fill="#FF1313"/>
<path d="M349.733 184.987L345.527 177.787H341.921V192.872H344.707V181.606L349.41 189.859H350.057L354.753 181.606V192.872H357.545V177.787H353.939L349.733 184.987Z" fill="#0066A3"/>
<path d="M365.381 186.37H370.575V183.826H365.381V180.331H371.066V177.787H362.589V192.872H371.306V190.334H365.381V186.37Z" fill="#0066A3"/>
<path d="M387.487 177.793H378.195C377.98 184.277 377.656 187.615 375.338 190.352H373.666L374.182 196.692H376.368V192.872H386.822V196.686H389.033L389.524 190.346H387.487V177.793ZM384.696 190.352H378.363C380.017 188.307 380.556 185.071 380.76 180.331H384.708L384.696 190.352Z" fill="#0066A3"/>
<path d="M396.18 187.206V177.787H393.394V192.872H394.892L403.375 183.477V192.872H406.161V177.787H404.657L396.18 187.206Z" fill="#0066A3"/>
<path d="M423.804 177.787H421.018V190.352H413.997V177.787H411.205V192.872H423.139V196.686H425.331L425.847 190.352H423.804V177.787Z" fill="#0066A3"/>
<path d="M432.61 187.206V177.787H429.819V192.872H431.322L439.799 183.477V192.872H442.585V177.787H441.087L432.61 187.206Z" fill="#0066A3"/>
<path d="M457.442 183.802H450.427V177.787H447.635V192.872H450.427V186.346H457.442V192.872H460.234V177.787H457.442V183.802Z" fill="#0066A3"/>
<path d="M471.179 177.36H470.58L463.691 192.872H466.608L467.854 189.967H473.929L475.175 192.872H478.069L471.179 177.36ZM468.819 187.663L470.856 182.924L472.899 187.663H468.819Z" fill="#0066A3"/>
<path d="M238.621 177.793H233.715V192.83H236.5V187.302H238.639C241.299 187.302 243.803 185.823 243.803 182.533C243.827 179.405 241.275 177.793 238.621 177.793ZM238.064 185.059H236.5V180.115H238.064C239.927 180.115 240.892 180.951 240.892 182.521C240.892 184.091 239.927 185.059 238.064 185.059Z" fill="#FF1313"/>
<path d="M260.601 185.035L266.125 177.817H262.722L258.205 183.832H257.516V177.817H254.73V183.832H254.041L249.524 177.817H246.116L251.645 185.035C249.458 186.803 248.176 188.908 245.906 192.854H249.351C250.938 189.847 251.903 188.169 254.041 186.358H254.73V192.854H257.51V186.358H258.205C260.344 188.163 261.308 189.865 262.896 192.854H266.341C264.064 188.908 262.782 186.803 260.601 185.035Z" fill="#FF1313"/>
<path d="M281.719 177.793H272.445C272.23 184.265 271.906 187.597 269.594 190.328H267.922L268.437 196.65H270.624V192.842H281.054V196.65H283.259L283.75 190.328H281.719V177.793ZM278.933 190.328H272.613C274.266 188.283 274.8 185.059 275.009 180.325H278.951L278.933 190.328Z" fill="#FF1313"/>
<path d="M316.915 186.37C316.712 186.369 316.514 186.304 316.35 186.183C316.187 186.061 316.066 185.891 316.005 185.697L314.561 180.945L311.949 189.672C311.896 189.867 311.784 190.04 311.629 190.168C311.473 190.295 311.281 190.37 311.08 190.382H311.026C310.835 190.383 310.648 190.327 310.49 190.219C310.332 190.112 310.21 189.959 310.14 189.781L307.809 183.964C307.809 183.964 306.779 185.306 306.563 185.576C306.481 185.705 306.373 185.815 306.246 185.898C306.119 185.982 305.976 186.039 305.826 186.063L291.694 186.106C291.775 188.418 292.253 190.699 293.108 192.848H304.334V204.126C309.139 206.07 314.507 206.07 319.312 204.126V192.848C319.312 192.848 323.841 192.553 326.974 191.014C332.24 188.427 333.69 183.97 333.69 182.25C327.729 187.152 316.915 186.37 316.915 186.37Z" fill="#FF1313"/>
<path d="M334.888 164.536C334.504 163.899 334.067 163.295 333.582 162.732C325.644 153.71 307.761 155.285 307.761 155.285C307.761 155.285 324.188 154.016 332.923 162.906C333.828 163.879 334.558 165.003 335.079 166.226C335.229 168.47 334.984 172.374 332.084 174.978C329.424 172.909 324.086 171.092 319.312 170.467V166.509C314.507 164.565 309.139 164.565 304.334 166.509V177.799H293.09C292.227 179.973 291.746 182.281 291.67 184.62H305.257L307.084 181.258C307.264 180.927 307.426 180.752 307.791 180.77C308.157 180.788 308.39 181.143 308.522 181.492L310.547 185.576L313.345 177.155C313.398 176.954 313.515 176.776 313.679 176.648C313.842 176.52 314.042 176.449 314.249 176.446C314.453 176.446 314.651 176.511 314.815 176.632C314.979 176.753 315.1 176.924 315.16 177.119L317.514 184.62C321.289 184.932 325.088 184.524 328.711 183.417C333.773 181.943 335.984 178.364 336.835 174.707C337.263 172.961 337.307 171.142 336.966 169.377C336.625 167.611 335.905 165.941 334.858 164.482L334.888 164.536ZM319.312 177.799V171.117C324.572 171.718 329.322 173.462 331.545 175.435C331.122 175.76 330.671 176.046 330.197 176.289C326.752 178.04 319.312 177.799 319.312 177.799Z" fill="#0066A3"/>
<path d="M244.714 136.321C241.373 134.607 238.577 131.99 236.638 128.766C234.723 125.413 233.715 121.615 233.715 117.75C233.715 113.884 234.723 110.086 236.638 106.734C238.575 103.508 241.372 100.891 244.714 99.1789C248.296 97.3401 252.272 96.4108 256.294 96.4722C259.915 96.408 263.508 97.1217 266.832 98.5653C269.842 99.8943 272.471 101.963 274.476 104.58L265.849 112.315C263.341 109.135 260.388 107.546 256.989 107.546C255.711 107.491 254.437 107.708 253.249 108.184C252.062 108.66 250.988 109.383 250.099 110.306C248.362 112.147 247.493 114.617 247.493 117.717C247.493 120.816 248.362 123.288 250.099 125.133C250.988 126.056 252.062 126.779 253.249 127.255C254.437 127.731 255.711 127.949 256.989 127.894C260.384 127.894 263.337 126.304 265.849 123.124L274.476 130.853C272.477 133.485 269.847 135.566 266.832 136.904C263.507 138.346 259.915 139.057 256.294 138.991C252.275 139.064 248.299 138.147 244.714 136.321Z" fill="#0066A3"/>
<path d="M333.312 127.749V138.095H279.688V97.4045H332.557V107.75H293.12V112.514H330.185V122.396H293.12V127.749H333.312Z" fill="#0066A3"/>
<path d="M377.962 108.039H366.094V138.113H352.663V108.039H340.789V97.4045H377.932L377.962 108.039Z" fill="#0066A3"/>
<path d="M417.1 113.302C419.844 115.559 421.214 118.894 421.21 123.304C421.21 128.076 419.646 131.729 416.519 134.264C413.392 136.798 409.108 138.067 403.669 138.071H383.575V97.4045H397.013V109.903H405.4C410.46 109.903 414.36 111.036 417.1 113.302ZM406.179 127.196C406.634 126.718 406.987 126.15 407.216 125.53C407.444 124.909 407.544 124.248 407.509 123.587C407.509 120.872 405.925 119.515 402.758 119.515H397.013V128.537H402.74C403.374 128.558 404.005 128.45 404.596 128.22C405.187 127.989 405.725 127.641 406.179 127.196Z" fill="#0066A3"/>
<path d="M471.209 112.718C470.866 111.812 470.615 110.873 470.46 109.915C469.861 100.61 467.585 91.7686 463.086 83.5944C454.698 68.3227 441.938 58.6508 425.17 54.242C421.188 53.2076 417.111 52.5868 413.002 52.3894C411.493 52.3052 410.306 51.6917 409.701 50.2782C409.391 49.616 409.262 48.8823 409.33 48.1535C409.397 47.4247 409.658 46.7273 410.085 46.1339C410.445 45.6336 410.932 45.24 411.496 44.9945C412.061 44.7489 412.68 44.6605 413.29 44.7385C421.139 45.0477 428.872 46.7459 436.133 49.7549C459.09 59.529 472.575 76.954 477.122 101.453C477.631 104.201 477.793 107.016 478.033 109.807C478.142 110.554 477.997 111.317 477.623 111.971C477.248 112.626 476.664 113.135 475.966 113.416C475.224 113.734 474.406 113.833 473.61 113.699C472.814 113.566 472.072 113.207 471.473 112.664L471.209 112.718Z" fill="#0066A3"/>
<path d="M445.718 78.0487C453.279 85.868 457.556 95.7264 458.694 107.046C458.79 107.979 458.868 108.911 458.898 109.843C458.982 112.051 457.592 113.687 455.561 113.801C453.53 113.915 451.967 112.484 451.805 110.258C451.584 105.513 450.538 100.843 448.714 96.4602C442.256 81.6155 430.849 73.3872 414.943 71.27C414.212 71.1738 413.476 71.1377 412.739 71.0775C410.6 70.8971 409.174 69.3573 409.282 67.3303C409.303 66.853 409.42 66.3848 409.625 65.954C409.831 65.5231 410.122 65.1385 410.479 64.8233C410.837 64.5081 411.254 64.2687 411.706 64.1197C412.158 63.9706 412.636 63.9149 413.11 63.956C421.401 64.2323 429.489 66.5986 436.63 70.8369C439.941 72.8604 442.993 75.2823 445.718 78.0487Z" fill="#0066A3"/>
<path d="M432.137 91.1009C436.933 95.9981 439.896 102.409 440.524 109.248C440.764 111.461 439.458 113.157 437.427 113.368C435.396 113.578 433.743 112.279 433.443 110.084C431.921 98.812 424.193 91.0528 412.99 89.5311C410.798 89.2363 409.486 87.6484 409.695 85.5492C409.905 83.45 411.594 82.1869 413.793 82.4215C420.731 83.0705 427.222 86.1419 432.137 91.1009Z" fill="#0066A3"/>
</svg>
