<svg width="114" height="104" viewBox="0 0 114 104" fill="none" xmlns="http://www.w3.org/2000/svg">
<path d="M82.0378 87.5835C99.2006 73.5187 101.706 48.2117 87.6331 31.0585C73.5604 13.9054 48.239 11.4017 31.0761 25.4664C13.9133 39.5311 11.4082 64.8382 25.4808 81.9913C39.5535 99.1445 64.8749 101.648 82.0378 87.5835Z" fill="#0066A3" stroke="#0066A3" stroke-width="6" stroke-miterlimit="10"/>
<path d="M90.0673 75.5287C99.9948 55.6893 91.9505 31.563 72.0998 21.6411C52.2491 11.7192 28.1091 19.759 18.1817 39.5984C8.25418 59.4379 16.2985 83.5642 36.1492 93.4861C55.9999 103.408 80.1398 95.3681 90.0673 75.5287Z" fill="#FF7E13"/>
<path d="M39.9053 58.6926C39.3195 51.8782 38.7179 45.0637 38.1401 38.2493C37.8947 35.4234 39.3829 33.6229 42.1533 33.4049L64.7446 31.3622C67.4992 31.1119 69.2882 32.6217 69.5415 35.4476C70.7288 49.098 71.9109 62.7511 73.0877 76.4069C73.3331 79.2327 71.8449 81.0252 69.0744 81.2512L46.4832 83.3101C43.7286 83.5523 41.9396 82.0425 41.6863 79.2247C41.0847 72.3833 40.4911 65.5447 39.9053 58.7087V58.6926ZM45.1534 72.8705L68.6074 70.7551C68.6074 70.4725 68.6074 70.2545 68.6074 70.0365C67.6945 59.4488 66.7816 48.8666 65.8686 38.2897C65.8132 37.6357 65.5678 37.5469 64.9979 37.6034C57.7155 38.2816 50.4278 38.9437 43.1349 39.5896L42.2958 39.6703C43.2378 50.7962 44.1956 61.8172 45.1534 72.8705ZM47.9318 36.9978L57.858 36.1016C57.7472 35.4073 57.6363 34.7614 57.5334 34.1235L47.8209 35.0036C47.8209 35.2054 47.8209 35.375 47.8209 35.5445C47.8447 36.0047 47.8843 36.4811 47.9318 36.9978ZM59.2353 76.9074C59.2244 76.6397 59.1607 76.3769 59.048 76.1348C58.9353 75.8927 58.7759 75.6763 58.5794 75.4984C58.3829 75.3206 58.1532 75.185 57.9041 75.0997C57.6551 75.0144 57.3917 74.9811 57.1297 75.002C56.6058 75.0591 56.1248 75.3238 55.7902 75.7391C55.4556 76.1543 55.2943 76.687 55.3408 77.2223C55.3794 77.7613 55.6227 78.2637 56.0189 78.6226C56.4151 78.9815 56.9329 79.1685 57.4622 79.1439C57.9871 79.0849 58.468 78.8168 58.8001 78.398C59.1322 77.9791 59.2886 77.4434 59.2353 76.9074Z" fill="white"/>
</svg>
