<svg width="262" height="262" viewBox="0 0 262 262" fill="none" xmlns="http://www.w3.org/2000/svg">
<g clip-path="url(#clip0)">
<path d="M261.117 131C261.117 156.909 253.464 182.237 239.124 203.78C224.785 225.323 204.403 242.113 180.558 252.028C156.712 261.943 130.473 264.538 105.158 259.483C79.8436 254.428 56.5907 241.952 38.34 223.631C20.0892 205.31 7.66031 181.968 2.62494 156.557C-2.41043 131.145 0.173906 104.806 10.0511 80.8685C19.9284 56.9314 36.6549 36.4719 58.1155 22.0775C79.5761 7.68302 104.807 0 130.617 0C165.228 0 198.421 13.8017 222.895 38.369C247.368 62.9363 261.117 96.2566 261.117 131Z" fill="#FF1313"/>
<path d="M246.918 131C246.918 154.09 240.097 176.662 227.318 195.861C214.538 215.059 196.375 230.023 175.124 238.859C153.873 247.695 130.488 250.007 107.928 245.503C85.3683 240.998 64.6456 229.879 48.3807 213.552C32.1159 197.225 21.0393 176.422 16.5519 153.776C12.0644 131.13 14.3675 107.656 23.17 86.3233C31.9725 64.9908 46.879 46.7576 66.0045 33.9294C85.13 21.1012 107.615 14.2542 130.617 14.2542C145.891 14.253 161.014 17.272 175.125 23.1386C189.236 29.0053 202.057 37.6047 212.857 48.4458C223.656 59.2868 232.223 72.1572 238.067 86.322C243.911 100.487 246.919 115.668 246.918 131Z" fill="white"/>
<path d="M84.6445 112.045C87.4693 113.26 89.8787 115.278 91.5765 117.849C93.1702 120.539 94.0128 123.61 94.0157 126.739C94.0187 129.868 93.1819 132.941 91.5933 135.633C89.9075 138.216 87.4945 140.236 84.6613 141.438C81.3004 142.852 77.6799 143.538 74.0367 143.451H46.8624V156.189H36.2042V109.998H74.0199C77.6662 109.913 81.2886 110.611 84.6445 112.045ZM80.7337 132.668C81.5768 131.946 82.2425 131.038 82.6792 130.015C83.1158 128.992 83.3116 127.882 83.2514 126.771C83.317 125.648 83.124 124.525 82.6874 123.489C82.2508 122.453 81.5822 121.533 80.7337 120.798C79.0552 119.405 76.6215 118.712 73.4324 118.717H46.8624V134.724H73.4324C76.6327 134.769 79.0664 134.083 80.7337 132.668Z" fill="#FF1313"/>
<path d="M98.8191 109.998H109.477V147.487H132.556V156.197H98.8191V109.998Z" fill="#FF1313"/>
<path d="M173.376 146.299H152.018L147.939 156.197H137.029L157.548 109.998H168.047L188.633 156.197H177.455L173.376 146.299ZM170.019 138.178L162.726 120.486L155.425 138.178H170.019Z" fill="#FF1313"/>
<path d="M212.694 139.846V156.214H202.044V139.702L184.219 109.998H195.532L207.826 130.52L220.121 109.998H230.578L212.694 139.846Z" fill="#FF1313"/>
<path d="M81.8583 112.045C84.6846 113.258 87.0947 115.276 88.7903 117.849C90.3882 120.54 91.2318 123.614 91.2318 126.746C91.2318 129.878 90.3882 132.952 88.7903 135.642C87.1068 138.226 84.693 140.247 81.8583 141.446C78.4976 142.861 74.8769 143.547 71.2336 143.46H44.0762V156.198H33.4264V109.998H71.2336C74.8801 109.912 78.5026 110.61 81.8583 112.045ZM77.9475 132.668C78.7905 131.946 79.4563 131.038 79.8929 130.015C80.3296 128.992 80.5254 127.882 80.4651 126.771C80.5308 125.648 80.3378 124.525 79.9012 123.489C79.4645 122.453 78.796 121.533 77.9475 120.798C76.269 119.405 73.8353 118.712 70.6462 118.717H44.0762V134.724H70.6126C73.8352 134.769 76.2802 134.083 77.9475 132.668Z" fill="#0066A3"/>
<path d="M96.0412 109.998H106.699V147.487H129.778V156.197H96.0412V109.998Z" fill="#0066A3"/>
<path d="M170.598 146.299H149.223L145.144 156.197H134.234L154.754 109.998H165.278L185.855 156.197H174.677L170.598 146.299ZM167.241 138.178L159.94 120.486L152.639 138.178H167.241Z" fill="#0066A3"/>
<path d="M209.925 139.846V156.214H199.258V139.702L181.441 109.998H192.754L205.04 130.52L217.335 109.998H227.792L209.925 139.846Z" fill="#0066A3"/>
</g>
<defs>
<clipPath id="clip0">
<rect width="261" height="262" fill="white" transform="translate(0.117432)"/>
</clipPath>
</defs>
</svg>
