<svg width="690" height="631" viewBox="0 0 690 631" fill="none" xmlns="http://www.w3.org/2000/svg">
<path d="M681.959 0.0284347C680.097 0.0767656 678.33 0.860114 677.045 2.2068C675.76 3.55348 675.063 5.35366 675.105 7.21283C675.135 8.1957 675.368 9.16175 675.792 10.0497L485.3 203.001L494.045 211.318L679.17 13.3696C680.146 13.8395 681.219 14.0741 682.302 14.0547C683.226 14.0322 684.137 13.8282 684.982 13.4543C685.828 13.0804 686.591 12.544 687.229 11.8756C687.866 11.2073 688.366 10.4201 688.699 9.55901C689.032 8.69793 689.191 7.77983 689.169 6.85712C689.146 5.93441 688.942 5.02517 688.567 4.18131C688.193 3.33745 687.655 2.57549 686.986 1.93894C686.316 1.30239 685.528 0.803717 684.665 0.471391C683.803 0.139066 682.883 -0.0204039 681.959 0.00208713V0.0284347Z" fill="#0066A3"/>
<path d="M513.568 198.495C513.568 198.355 513.638 198.223 513.638 198.082C513.638 194.411 508.632 191.442 502.456 191.442C496.28 191.442 491.274 194.411 491.274 198.082C491.289 198.221 491.312 198.359 491.344 198.495C477.47 201.253 467.458 209.035 467.458 218.186C467.458 229.666 483.127 238.967 502.456 238.967C521.785 238.967 537.454 229.666 537.454 218.186C537.454 209.017 527.442 201.253 513.568 198.495Z" fill="#221E30"/>
<path d="M615.623 270.023H596.549V143.69C596.549 126.695 580.009 112.862 559.677 112.862H116.704C96.372 112.862 79.832 126.695 79.832 143.69V261.003H60.7846V143.69C60.7846 117.912 85.8673 96.9474 116.704 96.9474H559.677C590.514 96.9474 615.588 117.912 615.588 143.69L615.623 270.023Z" fill="#FF1313"/>
<path d="M66.4768 628.601H594.086C604.335 618.501 610.802 603.816 610.802 587.409V547.799H49.7257V587.409C49.7257 603.816 56.2185 618.501 66.4768 628.601Z" fill="#0066A3"/>
<path d="M643.02 367.636C643.02 371.401 642.981 375.207 642.905 379.053C642.905 382.9 642.826 386.738 642.712 390.612C642.597 394.485 642.527 398.218 642.412 402.029C642.298 405.841 642.105 409.75 641.955 413.632C641.805 417.514 641.612 421.238 641.383 425.049C641.154 428.861 640.961 432.769 640.776 436.608C640.591 440.446 640.275 444.249 640.011 448.025C639.747 451.802 639.518 455.781 639.21 459.628C638.902 463.474 638.638 467.269 638.33 471.045C638.022 474.822 637.679 478.8 637.371 482.603C637.063 486.406 636.685 490.245 636.342 494.021C635.999 497.938 635.621 501.812 635.242 505.615C634.864 509.418 634.477 513.3 634.098 517.032C633.676 520.993 633.298 524.832 632.876 528.591C632.459 532.514 632.043 536.32 631.626 540.008C630.368 550.811 629.18 560.622 628.107 569.062C625.635 588.499 613.441 602.683 599.153 602.683H57.7318C42.573 602.683 30.6607 587.155 28.6196 567.964C27.7398 559.752 26.7984 550.399 25.8395 540.008C25.5051 536.328 25.118 532.525 24.7749 528.591C24.467 524.832 24.1327 520.993 23.8247 517.032C23.4816 513.308 23.1737 509.505 22.8746 505.615C22.5754 501.724 22.2587 497.938 21.9948 494.021C21.7309 490.256 21.464 486.45 21.1942 482.603C20.9302 478.8 20.7015 474.918 20.4727 471.045C20.244 467.172 20.0153 463.474 19.7865 459.628C19.5578 455.781 19.3642 451.942 19.1795 448.025C19.0211 444.257 18.8363 440.419 18.6868 436.608C18.5372 432.796 18.3788 428.931 18.2645 425.049C18.1501 421.167 18.0357 417.443 17.9214 413.632C17.807 409.82 17.7278 405.911 17.6926 402.029C17.6574 398.147 17.5782 394.423 17.5782 390.612C17.5782 386.8 17.5342 382.9 17.5782 379.053C17.6222 375.207 17.5783 371.412 17.6486 367.636C18.7924 301.43 27.0975 243.595 51.019 229.938C59.0602 225.379 97.2343 220.663 150.25 216.86C261.983 208.832 439.569 204.731 540.744 213.891C578.038 217.282 604.969 222.49 614.374 229.938C636.28 247.24 643.099 303.714 643.02 367.636Z" fill="#0B9999"/>
<path d="M24.3438 523.549C25.8042 540.439 27.3087 555.537 28.6196 567.894C30.7574 587.91 43.1713 602.613 57.7317 602.613H599.171C613.459 602.613 625.652 588.428 628.125 568.992C629.717 556.441 631.573 540.939 633.403 523.549H24.3438Z" fill="#64CCCC"/>
<g style="mix-blend-mode:multiply" opacity="0.18">
<path d="M628.125 568.992C625.652 588.428 613.459 602.613 599.171 602.613H385.479C386.843 544.698 384.291 486.898 374.042 441.148C355.346 357.983 243.693 274.019 150.215 216.86C261.948 208.832 439.533 204.731 540.709 213.891C578.003 217.282 604.933 222.49 614.338 229.938C661.372 267.054 638.867 484.457 628.125 568.992Z" fill="#FF6D00"/>
</g>
<path opacity="0.48" d="M628.125 568.992C625.652 588.428 613.459 602.613 599.171 602.613H385.479C386.843 544.698 384.291 486.898 374.042 441.148C355.346 357.983 243.693 274.019 150.215 216.86C261.948 208.832 439.533 204.731 540.709 213.891C578.003 217.282 604.933 222.49 614.338 229.938C661.372 267.054 638.867 484.457 628.125 568.992Z" fill="#0B9999"/>
<path d="M614.374 229.938C604.925 222.49 578.039 217.282 540.744 213.891C439.569 204.731 261.939 208.832 150.25 216.86C155.247 219.908 436.023 216.544 529.597 225.019C566.892 228.401 593.778 233.618 603.227 241.066C650.234 278.182 627.72 495.585 616.978 580.085C616.174 586.952 613.912 593.569 610.344 599.495C619.432 594.322 626.33 583.036 628.125 568.957C638.867 484.457 661.372 267.054 614.374 229.938Z" fill="#0066A3"/>
<path d="M643.02 367.636C643.02 371.401 642.981 375.206 642.905 379.053H17.5782C17.5782 375.215 17.5782 371.412 17.6486 367.636H643.02Z" fill="#0066A3"/>
<path d="M642.712 390.603C642.641 394.406 642.527 398.209 642.413 402.021H17.6926C17.6105 398.221 17.5723 394.415 17.5782 390.603H642.712Z" fill="#0066A3"/>
<path d="M641.955 413.614C641.761 417.417 641.612 421.22 641.383 425.032H18.2468C18.0885 421.229 18.0181 417.426 17.9037 413.614H641.955Z" fill="#0066A3"/>
<path d="M640.776 436.581C640.503 440.419 640.275 444.222 640.011 447.999H19.1794C19.0211 444.231 18.8363 440.393 18.6867 436.581H640.776Z" fill="#0066A3"/>
<path d="M639.21 459.592C638.946 463.43 638.638 467.233 638.33 471.01H20.4727C20.2 467.242 20.0152 463.439 19.7865 459.592H639.21Z" fill="#0066A3"/>
<path d="M637.38 482.568C637.034 486.409 636.691 490.215 636.351 493.986H21.9948C21.7308 490.221 21.464 486.415 21.1942 482.568H637.38Z" fill="#0066A3"/>
<path d="M635.251 505.562C634.876 509.444 634.494 513.25 634.107 516.98H23.8247C23.4816 513.256 23.1737 509.453 22.8745 505.562H635.251Z" fill="#0066A3"/>
<path d="M632.884 528.529C632.468 532.452 632.052 536.258 631.635 539.947H25.8394C25.5051 536.267 25.118 532.464 24.7748 528.529H632.884Z" fill="#0066A3"/>
<path d="M106.147 407.958L104.765 407.466C101.865 406.418 99.4967 404.268 98.1781 401.484C96.8596 398.7 96.6974 395.508 97.7269 392.605L100.252 385.579C101.299 382.68 103.455 380.313 106.246 378.996C109.038 377.679 112.238 377.52 115.147 378.553L116.528 379.045C119.429 380.092 121.797 382.243 123.115 385.027C124.434 387.811 124.596 391.002 123.566 393.905L121.05 400.932C119.999 403.83 117.842 406.196 115.049 407.512C112.257 408.828 109.057 408.989 106.147 407.958Z" fill="#FF1313"/>
<path d="M0.651091 446.383C3.65117 464.616 24.5637 472.073 45.3707 475.7C73.4096 480.583 100.076 451.108 101.299 449.281C102.522 447.454 107.73 446.55 93.0377 431.812C72.002 410.733 109.296 398.437 112.78 376.594C112.78 376.594 122.678 363.929 111.364 356.991C104.756 352.942 93.7679 353.785 92.7122 353.478C89.542 352.493 86.3088 351.725 83.0345 351.177C70.0136 349.016 59.7201 351.291 53.6231 356.016C43.7079 363.701 46.6288 390.427 33.0361 389.909C19.4434 389.391 6.70403 394.423 8.04131 409.627C9.37859 424.83 -2.64812 426.411 0.651091 446.383Z" fill="#0066A3"/>
<path d="M7.96213 408.415L9.87127 406.658C8.76274 400.967 9.80089 396.057 13.9271 392.157C17.5078 388.776 21.4757 387.415 26.0594 388.574C37.0831 391.367 39.3705 389.04 39.4585 388.89L40.136 389.707V388.416L39.5553 387.195C39.5553 387.195 36.6168 390.436 26.2441 387.819C23.8581 387.216 21.3566 387.238 18.9816 387.883C16.6066 388.527 14.4384 389.773 12.6866 391.499C8.35803 395.565 6.80961 402.469 7.96213 408.415Z" fill="#0066A3"/>
<path d="M107.572 437.582C107.572 437.582 155.538 459.241 165.383 458.811C175.227 458.38 230.161 434.904 230.161 434.904L228.305 445.575C228.305 445.575 190.281 476.42 173.917 477.905C157.799 479.406 102.707 463.466 97.375 460.102C92.0435 456.738 92.149 440.981 107.572 437.582Z" fill="#ED985F"/>
<path d="M110.625 460.128C105.098 463.852 98.9067 466.482 92.3866 467.875C64.2862 474.356 53.5176 450.651 49.4706 434.368C52.4057 432.745 55.648 431.752 58.9899 431.452C61.0222 431.206 63.1601 431.048 64.9284 430.96C68.0869 428.554 72.785 418.664 73.8231 403.338L75.1516 403.698L97.2958 409.75C97.2958 409.75 96.2841 416.776 95.7826 423.416C95.4043 428.615 96.7504 432.005 97.7357 433.226C97.9695 433.281 98.1901 433.381 98.3849 433.521C98.5796 433.661 98.7447 433.839 98.8706 434.043C98.9966 434.247 99.0808 434.474 99.1186 434.71C99.1563 434.947 99.1468 435.189 99.0906 435.422C103.718 443.27 107.58 451.543 110.625 460.128Z" fill="#FFB27D"/>
<path d="M97.3222 409.75C97.3222 409.75 96.3105 416.776 95.809 423.424C83.2632 422.169 77.439 410.25 75.1779 403.698L97.3222 409.75Z" fill="#ED985F"/>
<path d="M101.07 416.346C101.07 416.346 71.2893 414.712 72.5914 396.206C73.8935 377.701 70.9374 365.036 90.0112 365.299C109.085 365.563 112.279 372.888 113.343 379.168C114.408 385.447 108.865 416.302 101.07 416.346Z" fill="#FFB27D"/>
<path d="M41.007 520.589C38.3236 506.862 29.5697 452.013 38.3236 434.368C41.4733 428.027 53.8343 427.456 67.3566 428.009C71.5708 430.732 80.791 440.463 94.5773 438.636C97.7533 438.215 97.7269 434.245 97.155 432.321C102.379 432.544 107.544 433.517 112.49 435.211C117.065 436.739 129.98 445.68 129.98 445.68C129.98 445.68 122.449 454.753 113.009 458.74C114.619 473.065 112.226 479.389 97.3398 512.483C84.7588 540.456 99.0378 565.637 99.0378 565.637C99.0378 565.637 24.9772 625.079 24.5637 594.813C24.2382 571.987 44.4469 538.129 41.007 520.589Z" fill="#3ECCCC"/>
<path d="M102.707 630.235C104.697 630.009 106.615 629.354 108.325 628.313C110.036 627.273 111.499 625.872 112.613 624.21C112.974 623.683 113.352 623.103 113.757 622.453C122.194 609.718 125.467 570.696 144.435 529.135C149.054 519.008 165.629 517.19 170.151 505.755C170.151 505.755 181.28 468.674 148.851 467.576C116.422 466.478 62.0163 570.748 61.1542 581.683C60.3096 592.354 39.7049 637.331 102.707 630.235Z" fill="#D8620B"/>
<path d="M231.569 629.383H185.407C185.407 629.383 183.647 622.032 186.709 617.034C189.392 612.643 188.363 610.087 186.383 606.424C188.832 607.483 191.485 607.984 194.152 607.891C196.593 607.616 198.94 606.79 201.014 605.476C203.002 607.742 211.51 617.359 214.167 619.265C217.193 621.434 230.636 620.661 231.569 629.383Z" fill="#1A2E4F"/>
<path d="M38.7635 452.707C38.4644 452.259 42.705 470.861 86.2721 489.129C123.707 504.833 128.863 464.537 97.4102 460.067C65.9578 455.596 38.7635 452.707 38.7635 452.707Z" fill="#189390"/>
<path d="M171.189 478.335C173.969 499.133 184.817 564.776 203.961 596.807C210.12 607.127 188.415 612.915 188.301 612.889C185.38 612.125 180.533 607.487 178.298 605.476C162.752 591.494 131.203 551.9 131.203 520.159C131.203 504.684 130.93 475.12 142.209 467.602C149.151 462.982 170.09 470.07 171.189 478.335Z" fill="#FF7E13"/>
<path d="M75.1692 629.383C75.1692 629.383 76.8848 627.003 79.8673 622.488C83.3864 617.122 87.3367 606.565 92.1051 593.022C97.1111 578.811 103.05 561.333 110.475 543.135C112.763 537.523 115.191 531.84 117.777 526.167C122.396 516.04 135.109 517.445 139.622 505.966C139.622 505.966 157.262 466.311 124.842 465.213C92.4218 464.116 30.8015 571.337 27.2647 581.718C23.3848 593.083 4.47821 640.265 75.1692 629.383Z" fill="#FF7E13"/>
<path d="M197.724 629.383H151.535C151.535 629.383 149.775 622.032 152.846 617.034C155.529 612.643 154.5 610.087 152.511 606.424C154.96 607.482 157.614 607.983 160.28 607.891C162.724 607.615 165.073 606.789 167.151 605.476C169.131 607.742 177.638 617.359 180.295 619.265C183.313 621.434 196.765 620.661 197.724 629.383Z" fill="#2B478B"/>
<path d="M92.1491 593.022C97.155 578.811 103.094 561.333 110.519 543.135C108.575 529.355 104.361 517.296 97.3662 512.395C97.3222 512.43 80.2719 565.18 92.1491 593.022Z" fill="#F26D0A"/>
<path d="M144.25 476.859C147.03 497.657 150.945 564.776 170.089 596.807C176.248 607.127 154.535 612.915 154.42 612.889C151.508 612.125 146.652 607.487 144.417 605.476C128.871 591.494 97.3222 551.9 97.3222 520.159C97.3222 504.684 115.516 476.359 126.795 468.849C128.402 467.8 130.249 467.175 132.163 467.033C134.078 466.89 135.997 467.236 137.741 468.036C139.486 468.837 140.998 470.066 142.136 471.609C143.275 473.153 144.002 474.959 144.25 476.859Z" fill="#FF9240"/>
<path d="M106.648 405.709C106.648 405.709 103.833 404.594 95.9058 405.235C95.9058 405.235 96.3281 408.327 102.17 408.625C103.126 408.658 104.069 408.395 104.87 407.873C105.671 407.352 106.292 406.596 106.648 405.709Z" fill="white"/>
<path d="M196.721 456.571L220.308 459.9C221.242 460.03 222.19 459.785 222.944 459.219C223.697 458.652 224.195 457.811 224.328 456.878L230.61 412.481C230.741 411.547 230.496 410.6 229.929 409.846C229.361 409.092 228.518 408.593 227.584 408.458L203.997 405.138C203.533 405.068 203.06 405.09 202.606 405.205C202.151 405.319 201.724 405.523 201.349 405.805C200.975 406.086 200.66 406.439 200.425 406.844C200.189 407.248 200.036 407.696 199.976 408.16L193.694 452.557C193.624 453.02 193.646 453.492 193.761 453.946C193.875 454.4 194.08 454.826 194.361 455.2C194.643 455.574 194.997 455.888 195.402 456.123C195.808 456.359 196.256 456.511 196.721 456.571Z" fill="#A60606"/>
<path d="M201.445 457.239L224.997 460.611C225.461 460.682 225.933 460.659 226.388 460.545C226.843 460.43 227.27 460.226 227.644 459.945C228.019 459.664 228.333 459.31 228.569 458.906C228.805 458.501 228.957 458.054 229.018 457.59L235.335 413.184C235.465 412.251 235.22 411.305 234.653 410.552C234.085 409.8 233.242 409.303 232.308 409.17L208.721 405.806C208.258 405.735 207.785 405.758 207.33 405.872C206.876 405.987 206.448 406.191 206.074 406.472C205.699 406.754 205.385 407.107 205.149 407.511C204.913 407.916 204.761 408.363 204.7 408.827L198.419 453.225C198.348 453.687 198.371 454.159 198.485 454.613C198.6 455.067 198.804 455.493 199.086 455.867C199.368 456.241 199.722 456.555 200.127 456.791C200.532 457.026 200.98 457.178 201.445 457.239Z" fill="#FF1313"/>
<path d="M232.546 415.819C232.625 415.218 232.526 414.608 232.259 414.065C231.993 413.521 231.572 413.068 231.048 412.762C230.525 412.456 229.923 412.311 229.318 412.346C228.712 412.38 228.131 412.592 227.645 412.956C227.16 413.319 226.794 413.817 226.591 414.387C226.388 414.958 226.359 415.575 226.506 416.163C226.654 416.75 226.972 417.28 227.42 417.688C227.868 418.095 228.427 418.362 229.026 418.453C229.431 418.514 229.844 418.494 230.241 418.394C230.638 418.294 231.011 418.116 231.338 417.871C231.666 417.626 231.941 417.318 232.148 416.966C232.356 416.613 232.491 416.223 232.546 415.819Z" fill="#A60606"/>
<path d="M237.701 428.352C236.557 425.164 232.968 420.869 231.411 420.561C226.686 419.63 226.686 425.831 227.689 429.854C228.384 432.646 230.645 434.64 232.088 436.089L231.068 443.318C239.074 438.935 239.206 432.506 237.701 428.352Z" fill="#FFB27D"/>
<path d="M160.113 592.231C167.151 592.231 173.257 588.27 180.348 583.677C187.659 578.916 195.938 573.524 207.727 570.503C221.434 566.989 237.077 567.376 255.543 571.794C279.139 577.432 302.234 579.338 322.346 577.3C342.73 575.236 359.569 569.15 371.051 559.735C376.859 555.045 381.494 549.07 384.591 542.283C387.742 534.969 389.129 527.017 388.638 519.07H387.934C388.646 535.538 382.796 549.002 370.523 559.102C359.156 568.465 342.449 574.49 322.205 576.545C302.172 578.574 279.157 576.677 255.64 571.056C213.718 561.035 194.169 573.761 179.89 583.062C169.016 590.141 161.151 595.261 148.526 588.033C138.373 582.219 134.678 570.467 137.537 553.112C139.957 538.498 146.555 523.382 150.268 515.671C153.755 508.535 155.939 500.834 156.717 492.932C157.447 485.159 156.532 479.327 153.91 475.103C150.954 470.36 145.869 467.576 138.347 466.592C116.264 463.703 104.712 454.349 104.712 446.611C104.712 443.476 106.032 439.436 107.554 434.763C110.29 426.376 113.387 416.872 110.299 408.485L109.639 408.731C112.639 416.89 109.578 426.296 106.886 434.544C105.337 439.278 104 443.326 104 446.611C104 456 118.411 464.695 138.25 467.295C152.036 469.095 157.517 476.956 156.013 492.862C155.246 500.682 153.086 508.302 149.634 515.364C145.895 523.11 139.271 538.296 136.842 552.998C133.921 570.678 137.722 582.676 148.174 588.639C152.608 591.186 156.488 592.231 160.113 592.231Z" fill="black"/>
<path d="M104.264 446.963L104.528 446.313C96.9982 443.407 90.3765 438.557 85.3395 432.26C81.3916 427.149 78.5514 421.275 76.9991 415.01C75.2635 408.222 74.7629 401.178 75.5211 394.213L74.826 394.107C74.0472 401.166 74.5509 408.306 76.3129 415.186C77.8904 421.544 80.7757 427.505 84.7852 432.69C89.8981 439.085 96.6198 444.01 104.264 446.963Z" fill="black"/>
<path d="M209.24 435.334C207.577 435.009 204.005 433.665 200.389 432.699C201.472 431.821 202.677 430.837 203.029 429.783C203.671 427.754 204.102 427.096 201.947 427.746C199.791 428.396 192.269 431.83 192.269 431.83C187.993 433.077 184.061 439.102 184.061 439.102C184.061 439.102 131.185 457.66 124.824 457.976C114.98 458.468 49.4794 434.386 49.4794 434.386C34.0215 437.793 37.4878 456.755 42.8018 460.119C48.1157 463.483 95.2635 480.601 123.197 480.926C137.344 481.084 188.811 448.069 188.811 448.069C188.811 448.069 194.829 445.32 199.554 446.181C204.278 447.042 215.231 446.181 217.598 442.316C219.965 438.452 212.029 435.87 209.24 435.334Z" fill="#FFB27D"/>
<path d="M83.2456 446.242C83.2456 446.242 77.3863 464.757 57.2655 468.972C57.2655 468.972 24.0359 458.758 40.5495 436.16C40.5847 436.16 56.9576 424.022 83.2456 446.242Z" fill="#3ECCCC"/>
<path d="M112.762 376.594C112.762 376.594 107.633 378.825 99.3281 375.479C91.0229 372.132 89.4305 378.386 89.3425 381.232C89.1226 387.986 83.2456 387.871 83.2456 387.871L68.3332 378.342V360.697L93.0112 354.549L113.475 361.365C113.475 361.365 114.548 370.798 112.762 376.594Z" fill="#0066A3"/>
<path d="M74.8701 376.717L79.3482 377.139C79.3482 377.139 82.6386 378.017 82.6474 378.105C82.4803 376.173 86.1665 362.348 92.6946 353.46C89.5244 352.476 86.2911 351.707 83.0169 351.159C77.4303 359.959 74.3686 375.075 74.8701 376.717Z" fill="#FF1313"/>
<path d="M63.9362 382.356L61.8965 389.556C60.146 395.736 63.7452 402.163 69.9357 403.91L71.3495 404.31C77.54 406.057 83.9774 402.464 85.728 396.284L87.7677 389.083C89.5182 382.904 85.919 376.477 79.7285 374.729L78.3147 374.33C72.1243 372.583 65.6868 376.176 63.9362 382.356Z" fill="#FF1313"/>
<path d="M67.9868 385.419L66.973 389.003C66.1014 392.084 67.8967 395.286 70.9829 396.157L71.6772 396.352C74.7634 397.222 77.9718 395.43 78.8433 392.349L79.8571 388.765C80.7287 385.684 78.9333 382.482 75.8472 381.611L75.1529 381.416C72.0667 380.546 68.8583 382.338 67.9868 385.419Z" fill="#A60606"/>
<path d="M111.153 407.773L111.46 410.812L110.009 411.076L109.164 408.037L111.153 407.773Z" fill="#ED7D2B"/>
<path d="M76.1633 403.338V408.081H74.7117L73.9023 403.338H76.1633Z" fill="#ED7D2B"/>
<g clip-path="url(#clip0)">
<path d="M233.652 299.69C245.256 288.261 245.256 269.731 233.652 258.303C222.047 246.874 203.233 246.874 191.629 258.303C180.024 269.731 180.024 288.261 191.629 299.69C203.233 311.118 222.047 311.118 233.652 299.69Z" fill="#0066A3" stroke="#0066A3" stroke-width="6" stroke-miterlimit="10"/>
<path d="M231.844 299.694C243.448 288.266 243.448 269.736 231.844 258.307C220.24 246.879 201.425 246.879 189.821 258.307C178.217 269.736 178.217 288.266 189.821 299.694C201.425 311.123 220.24 311.123 231.844 299.694Z" fill="#FF7E13"/>
</g>
<g clip-path="url(#clip1)">
<path d="M150.479 302.627C163.172 292.379 165.025 273.94 154.617 261.441C144.21 248.943 125.484 247.119 112.791 257.367C100.098 267.615 98.2453 286.054 108.653 298.553C119.06 311.051 137.787 312.875 150.479 302.627Z" fill="#0066A3" stroke="#0066A3" stroke-width="6" stroke-miterlimit="10"/>
<path d="M156.417 293.837C163.759 279.381 157.81 261.802 143.13 254.573C128.449 247.343 110.596 253.201 103.254 267.657C95.9126 282.112 101.862 299.692 116.542 306.921C131.223 314.15 149.076 308.292 156.417 293.837Z" fill="#FF7E13"/>
</g>
<defs>
<clipPath id="clip0">
<rect width="63" height="62" fill="white" transform="translate(181.117 248)"/>
</clipPath>
<clipPath id="clip1">
<rect width="63" height="62" fill="white" transform="translate(100.117 249)"/>
</clipPath>
</defs>
</svg>
