<svg width="455" height="207" viewBox="0 0 455 207" fill="none" xmlns="http://www.w3.org/2000/svg">
<g clip-path="url(#clip0)">
<path d="M352.93 14L343.5 66.72C341.91 75.61 335 82 327 82H9.06001C3.33001 82 -0.99999 76 0.18001 69.67L9.91001 15.28C11.5 6.39 18.39 0 26.38 0H342.86C349.36 0 354.23 6.76 352.93 14Z" fill="#FF1313"/>
<path d="M453.8 109.46L448.8 131.13C447.59 136.36 442.37 140.13 436.3 140.13H13C4.93999 140.13 -1.10001 133.62 0.499987 126.67L6.49999 100.75C7.70999 95.52 12.93 91.75 19 91.75H437.4C448 91.75 455.91 100.31 453.8 109.46Z" fill="#FF1313"/>
<path d="M241.86 164.21L235.41 190.13C234.11 195.36 228.47 199.13 221.93 199.13H14C5.29999 199.13 -1.22001 192.62 0.509986 185.67L6.95999 159.75C8.25999 154.52 13.9 150.75 20.45 150.75H228.45C237.08 150.75 243.59 157.25 241.86 164.21Z" fill="#FF1313"/>
<path d="M43.81 23.37L41.07 33H44.07C50.2567 33 54.9467 34.2 58.14 36.6C61.3333 39 62.9533 42.39 63 46.77C63.053 50.2581 62.0031 53.6739 60 56.53C57.9207 59.4227 55.0634 61.6662 51.76 63C47.9132 64.5739 43.7857 65.3464 39.63 65.27C36.1067 65.2988 32.5996 64.7896 29.23 63.76C26.2694 62.8734 23.5156 61.4047 21.13 59.44L26.75 50.87C28.5414 52.3759 30.6055 53.5233 32.83 54.25C35.2509 55.0739 37.7928 55.4863 40.35 55.47C43.81 55.47 46.4767 54.8367 48.35 53.57C49.2513 52.9862 49.9846 52.1772 50.4774 51.2232C50.9702 50.2691 51.2055 49.2029 51.16 48.13C51.16 44.29 47.8967 42.37 41.37 42.37H27.68L35.89 14H66.71L64.76 23.36L43.81 23.37Z" fill="white"/>
<path d="M144.48 21.71L136 64.41H126.79L131.85 39L115.5 59.9H111.05L102.26 38.67L97.14 64.41H87.93L96.47 21.71H104.47L115.15 48.31L136 21.71H144.48Z" fill="white"/>
<path d="M177.78 55.26H157.9L152.34 64.41H141.79L169.43 21.71H179.18L189.68 64.41H179.8L177.78 55.26ZM176.14 47.76L172.54 31.29L162.47 47.76H176.14Z" fill="white"/>
<path d="M233.26 25.22C234.703 26.3935 235.85 27.8904 236.608 29.5895C237.365 31.2885 237.712 33.142 237.62 35C237.699 38.2989 236.82 41.5499 235.09 44.36C233.353 47.0735 230.846 49.2077 227.89 50.49C224.421 51.9898 220.668 52.7199 216.89 52.63H207.38L205.06 64.4H195.12L203.66 21.7H220.92C226.247 21.7067 230.36 22.88 233.26 25.22ZM224.93 42.33C225.839 41.5274 226.553 40.5288 227.019 39.4097C227.485 38.2906 227.69 37.0802 227.62 35.87C227.685 35.0015 227.536 34.1303 227.188 33.3321C226.839 32.534 226.301 31.833 225.62 31.29C223.87 30.1669 221.805 29.6342 219.73 29.77H211.98L208.98 44.59H217.34C220.6 44.59 223.15 43.84 224.93 42.33Z" fill="white"/>
<path d="M277.82 29.77H264L257.2 64.41H247.44L254.28 29.77H240.8L242.38 21.71H279.38L277.82 29.77Z" fill="white"/>
<path d="M306.13 55.26H286.24L280.69 64.41H270.14L297.77 21.71H307.53L318 64.41H308.12L306.13 55.26ZM304.48 47.76L300.88 31.29L290.82 47.76H304.48Z" fill="white"/>
<path d="M32.77 128.19C30.4337 127.115 28.4654 125.376 27.11 123.19C25.7552 120.937 25.0621 118.348 25.11 115.72C25.0595 112.193 25.9427 108.715 27.67 105.64C29.3746 102.657 31.8741 100.206 34.89 98.56C38.1734 96.8003 41.8557 95.9185 45.58 96C48.2564 95.9482 50.9137 96.4592 53.38 97.5C55.4905 98.3838 57.278 99.8955 58.5 101.83L53 106.29C51.2533 103.717 48.6067 102.433 45.06 102.44C42.8138 102.394 40.5998 102.98 38.67 104.13C36.8383 105.235 35.3496 106.828 34.37 108.73C33.3364 110.735 32.811 112.964 32.84 115.22C32.7926 116.335 32.984 117.447 33.4013 118.482C33.8187 119.516 34.4524 120.45 35.26 121.22C37.1535 122.807 39.5844 123.605 42.05 123.45C43.6953 123.482 45.3281 123.158 46.8366 122.501C48.3451 121.843 49.6937 120.867 50.79 119.64L55.31 124.25C52.05 128.083 47.41 130 41.39 130C38.4164 130.059 35.4685 129.44 32.77 128.19Z" fill="white"/>
<path d="M76.13 126.66C74.0033 124.453 72.9367 121.407 72.93 117.52C72.886 113.789 73.6324 110.092 75.12 106.67C76.4226 103.571 78.5199 100.87 81.2 98.84C83.7701 96.9408 86.8949 95.9426 90.09 96C91.689 95.9169 93.2878 96.1684 94.7841 96.7383C96.2805 97.3083 97.6414 98.1842 98.78 99.31C100.907 101.517 101.973 104.563 101.98 108.45C102.024 112.184 101.278 115.885 99.79 119.31C98.4838 122.41 96.3831 125.111 93.7 127.14C91.1335 129.041 88.0135 130.046 84.82 130C83.2188 130.079 81.6187 129.823 80.1222 129.248C78.6258 128.673 77.266 127.791 76.13 126.66ZM90.25 121.19C91.6464 119.47 92.6682 117.478 93.25 115.34C93.9051 113.15 94.2419 110.876 94.25 108.59C94.3788 106.929 93.9186 105.276 92.95 103.92C92.5 103.404 91.9381 102.999 91.3072 102.733C90.6763 102.468 89.9932 102.351 89.31 102.39C88.3962 102.396 87.496 102.611 86.678 103.019C85.86 103.426 85.1459 104.015 84.59 104.74C83.1899 106.457 82.1676 108.451 81.59 110.59C80.9342 112.777 80.5974 115.047 80.59 117.33C80.4626 118.989 80.9189 120.641 81.88 122C82.333 122.515 82.8968 122.92 83.5291 123.185C84.1613 123.45 84.8455 123.568 85.53 123.53C86.4429 123.525 87.3426 123.311 88.1606 122.906C88.9785 122.5 89.6931 121.913 90.25 121.19Z" fill="white"/>
<path d="M125.64 97.5C127.618 98.5211 129.239 100.118 130.29 102.08C131.465 104.351 132.04 106.884 131.96 109.44C131.956 112.787 131.236 116.094 129.85 119.14C128.431 122.3 126.151 124.997 123.27 126.92C120.001 129.038 116.163 130.105 112.27 129.98C110.523 129.986 108.781 129.788 107.08 129.39C105.662 129.09 104.307 128.541 103.08 127.77L106.56 122.18C108.407 123.318 110.553 123.872 112.72 123.77C115.413 123.905 118.052 122.979 120.07 121.19C121.945 119.393 123.216 117.059 123.71 114.51C121.691 116.323 119.041 117.27 116.33 117.15C114.469 117.171 112.626 116.786 110.93 116.02C109.352 115.313 108.001 114.181 107.03 112.75C106.032 111.24 105.522 109.46 105.57 107.65C105.522 105.466 106.12 103.316 107.29 101.47C108.445 99.6874 110.081 98.2691 112.01 97.38C114.114 96.4309 116.402 95.9596 118.71 96C121.107 95.9339 123.485 96.4485 125.64 97.5ZM122.56 110C123.093 109.543 123.518 108.973 123.803 108.331C124.089 107.689 124.228 106.992 124.21 106.29C124.221 105.665 124.096 105.046 123.844 104.474C123.592 103.903 123.219 103.393 122.75 102.98C121.643 102.027 120.207 101.546 118.75 101.64C117.238 101.574 115.759 102.093 114.62 103.09C114.085 103.584 113.665 104.189 113.389 104.863C113.113 105.537 112.987 106.263 113.02 106.99C112.992 107.606 113.104 108.221 113.348 108.787C113.593 109.354 113.963 109.857 114.43 110.26C115.496 111.103 116.833 111.53 118.19 111.46C119.779 111.545 121.341 111.023 122.56 110Z" fill="white"/>
<path d="M133.7 128.59C133.303 128.2 132.989 127.732 132.78 127.216C132.57 126.7 132.468 126.147 132.48 125.59C132.456 124.936 132.569 124.284 132.812 123.676C133.055 123.068 133.422 122.518 133.89 122.06C134.351 121.614 134.896 121.265 135.494 121.031C136.091 120.798 136.729 120.685 137.37 120.7C137.936 120.679 138.501 120.772 139.031 120.975C139.56 121.178 140.043 121.486 140.45 121.88C140.847 122.28 141.157 122.757 141.362 123.281C141.567 123.806 141.661 124.367 141.64 124.93C141.661 125.581 141.544 126.229 141.298 126.832C141.051 127.435 140.681 127.98 140.21 128.43C139.764 128.878 139.232 129.232 138.646 129.471C138.06 129.71 137.433 129.829 136.8 129.82C136.227 129.835 135.657 129.734 135.124 129.523C134.591 129.311 134.107 128.994 133.7 128.59ZM137.09 111.72C136.689 111.332 136.373 110.865 136.162 110.348C135.95 109.832 135.847 109.278 135.86 108.72C135.836 108.066 135.949 107.414 136.192 106.806C136.435 106.198 136.802 105.648 137.27 105.19C137.73 104.743 138.275 104.392 138.873 104.158C139.47 103.925 140.109 103.813 140.75 103.83C141.316 103.809 141.88 103.902 142.409 104.103C142.938 104.304 143.421 104.609 143.83 105C144.217 105.396 144.52 105.865 144.721 106.381C144.922 106.896 145.017 107.447 145 108C145.019 108.652 144.901 109.3 144.653 109.903C144.405 110.507 144.033 111.051 143.56 111.5C143.114 111.946 142.584 112.299 142 112.538C141.416 112.776 140.791 112.896 140.16 112.89C139.596 112.91 139.034 112.817 138.506 112.616C137.979 112.415 137.498 112.11 137.09 111.72Z" fill="white"/>
<path d="M150.25 126.66C148.11 124.453 147.043 121.407 147.05 117.52C147.008 113.79 147.75 110.094 149.23 106.67C150.54 103.572 152.64 100.872 155.32 98.84C157.887 96.9423 161.008 95.9441 164.2 96C165.801 95.9155 167.401 96.1663 168.9 96.7363C170.398 97.3063 171.76 98.1829 172.9 99.31C175.027 101.517 176.09 104.563 176.09 108.45C176.137 112.183 175.394 115.884 173.91 119.31C172.6 122.408 170.5 125.108 167.82 127.14C165.257 129.052 162.137 130.067 158.94 130.03C157.337 130.106 155.735 129.845 154.238 129.265C152.742 128.684 151.383 127.797 150.25 126.66ZM164.37 121.19C165.766 119.47 166.788 117.478 167.37 115.34C168.025 113.15 168.362 110.876 168.37 108.59C168.502 106.93 168.045 105.277 167.08 103.92C166.63 103.404 166.068 102.999 165.437 102.733C164.806 102.468 164.123 102.351 163.44 102.39C162.526 102.396 161.626 102.611 160.808 103.019C159.99 103.426 159.276 104.015 158.72 104.74C157.32 106.458 156.298 108.451 155.72 110.59C155.064 112.777 154.727 115.047 154.72 117.33C154.59 118.988 155.042 120.64 156 122C156.451 122.514 157.013 122.919 157.644 123.185C158.274 123.45 158.957 123.568 159.64 123.53C160.555 123.526 161.456 123.314 162.276 122.908C163.096 122.502 163.812 121.915 164.37 121.19Z" fill="white"/>
<path d="M182.11 126.66C179.977 124.453 178.913 121.407 178.92 117.52C178.873 113.79 179.616 110.092 181.1 106.67C182.41 103.572 184.51 100.872 187.19 98.84C189.757 96.9423 192.878 95.9441 196.07 96C197.669 95.9157 199.268 96.1666 200.765 96.7366C202.261 97.3066 203.622 98.1832 204.76 99.31C206.9 101.517 207.967 104.563 207.96 108.45C208.004 112.184 207.258 115.885 205.77 119.31C204.467 122.409 202.37 125.11 199.69 127.14C197.127 129.052 194.007 130.067 190.81 130.03C189.205 130.106 187.602 129.846 186.104 129.265C184.605 128.685 183.245 127.797 182.11 126.66ZM196.23 121.19C197.63 119.472 198.652 117.479 199.23 115.34C199.881 113.149 200.217 110.876 200.23 108.59C200.362 106.93 199.905 105.277 198.94 103.92C198.487 103.405 197.924 102.999 197.291 102.734C196.659 102.469 195.975 102.351 195.29 102.39C194.376 102.396 193.476 102.611 192.658 103.019C191.84 103.426 191.126 104.015 190.57 104.74C189.174 106.46 188.152 108.452 187.57 110.59C186.914 112.777 186.577 115.047 186.57 117.33C186.44 118.993 186.897 120.649 187.86 122.01C188.31 122.526 188.872 122.931 189.503 123.197C190.134 123.462 190.817 123.579 191.5 123.54C192.415 123.535 193.318 123.321 194.137 122.913C194.957 122.506 195.673 121.917 196.23 121.19Z" fill="white"/>
<path d="M254 123.21H258.65L256.02 136.21H249L250.36 129.39H227.14L225.77 136.21H218.72L221.35 123.21H222.35C224.35 123.15 226.15 121.64 227.64 118.7C229.45 114.807 230.812 110.721 231.7 106.52L234.1 96.52H259.39L254 123.21ZM235.34 117.5C234.672 119.599 233.587 121.541 232.15 123.21H246.5L250.59 102.72H239.36L238.13 107.79C237.384 111.075 236.459 114.316 235.36 117.5H235.34Z" fill="white"/>
<path d="M270.89 128.19C268.591 127.106 266.664 125.366 265.35 123.19C264.034 120.924 263.366 118.34 263.42 115.72C263.367 112.181 264.258 108.691 266 105.61C267.699 102.633 270.187 100.182 273.19 98.53C276.44 96.7903 280.084 95.9188 283.77 96C286.719 95.9254 289.646 96.5347 292.32 97.78C294.622 98.8643 296.552 100.604 297.87 102.78C299.181 105.052 299.848 107.638 299.8 110.26C299.851 113.787 298.967 117.265 297.24 120.34C295.543 123.319 293.05 125.767 290.04 127.41C286.795 129.18 283.145 130.072 279.45 130C276.495 130.065 273.565 129.446 270.89 128.19ZM286.45 121.75C288.246 120.615 289.692 119.006 290.63 117.1C291.616 115.098 292.116 112.892 292.09 110.66C292.144 109.551 291.963 108.442 291.558 107.408C291.153 106.374 290.533 105.437 289.74 104.66C287.907 103.078 285.527 102.277 283.11 102.43C280.927 102.372 278.773 102.944 276.906 104.077C275.039 105.21 273.537 106.857 272.58 108.82C271.598 110.823 271.101 113.029 271.13 115.26C271.076 116.369 271.258 117.477 271.663 118.512C272.068 119.546 272.687 120.482 273.48 121.26C275.308 122.844 277.686 123.645 280.1 123.49C282.341 123.539 284.547 122.934 286.45 121.75Z" fill="white"/>
<path d="M332.65 96.51L326.07 129.41H318.46L323.81 102.62H317.23L318.46 96.51H332.65Z" fill="white"/>
<path d="M363.34 122.5H357.93L356.57 129.41H349.15L350.56 122.5H332.84L333.84 117.38L353.21 96.51H361.53L343.46 116.3H352.11L353.33 110.14H360.43L359.2 116.3H364.61L363.34 122.5Z" fill="white"/>
<path d="M366.39 128.59C365.993 128.2 365.679 127.732 365.47 127.216C365.26 126.7 365.158 126.147 365.17 125.59C365.146 124.936 365.259 124.284 365.502 123.676C365.745 123.068 366.112 122.518 366.58 122.06C367.041 121.614 367.586 121.265 368.184 121.031C368.781 120.798 369.419 120.685 370.06 120.7C370.626 120.679 371.191 120.772 371.721 120.975C372.25 121.178 372.733 121.486 373.14 121.88C373.541 122.277 373.854 122.754 374.061 123.279C374.267 123.804 374.362 124.366 374.34 124.93C374.359 125.582 374.241 126.23 373.993 126.833C373.745 127.437 373.373 127.981 372.9 128.43C372.456 128.878 371.926 129.232 371.341 129.471C370.757 129.71 370.131 129.828 369.5 129.82C368.925 129.835 368.354 129.734 367.819 129.523C367.285 129.312 366.799 128.994 366.39 128.59ZM369.78 111.72C369.379 111.333 369.063 110.866 368.853 110.349C368.643 109.832 368.543 109.277 368.56 108.72C368.536 108.066 368.649 107.414 368.892 106.806C369.135 106.198 369.502 105.648 369.97 105.19C370.429 104.743 370.972 104.393 371.568 104.159C372.164 103.926 372.8 103.814 373.44 103.83C374.006 103.809 374.57 103.901 375.099 104.102C375.628 104.303 376.111 104.608 376.52 105C376.92 105.4 377.233 105.878 377.439 106.405C377.646 106.931 377.741 107.495 377.72 108.06C377.739 108.711 377.621 109.358 377.375 109.961C377.129 110.564 376.759 111.109 376.29 111.56C375.842 112.007 375.31 112.359 374.725 112.598C374.139 112.837 373.512 112.956 372.88 112.95C372.307 112.965 371.737 112.864 371.204 112.653C370.671 112.441 370.187 112.124 369.78 111.72Z" fill="white"/>
<path d="M382.94 126.66C380.813 124.453 379.747 121.407 379.74 117.52C379.696 113.789 380.442 110.092 381.93 106.67C383.234 103.574 385.327 100.874 388 98.84C390.574 96.9401 393.702 95.9419 396.9 96C398.499 95.9169 400.098 96.1684 401.594 96.7383C403.09 97.3083 404.451 98.1842 405.59 99.31C407.723 101.517 408.79 104.563 408.79 108.45C408.834 112.184 408.088 115.885 406.6 119.31C405.297 122.409 403.2 125.11 400.52 127.14C397.953 129.052 394.83 130.067 391.63 130.03C390.027 130.105 388.425 129.844 386.929 129.264C385.432 128.684 384.073 127.797 382.94 126.66ZM397.06 121.19C398.456 119.47 399.478 117.478 400.06 115.34C400.715 113.15 401.052 110.876 401.06 108.59C401.192 106.93 400.735 105.277 399.77 103.92C399.317 103.405 398.753 103 398.121 102.735C397.489 102.47 396.805 102.352 396.12 102.39C395.206 102.396 394.306 102.611 393.488 103.019C392.67 103.426 391.956 104.015 391.4 104.74C390.004 106.46 388.982 108.452 388.4 110.59C387.744 112.777 387.407 115.047 387.4 117.33C387.269 118.994 387.729 120.652 388.7 122.01C389.15 122.526 389.712 122.931 390.343 123.197C390.974 123.462 391.657 123.579 392.34 123.54C393.254 123.534 394.154 123.319 394.972 122.911C395.79 122.504 396.504 121.915 397.06 121.19Z" fill="white"/>
<path d="M414.8 126.66C412.673 124.453 411.61 121.407 411.61 117.52C411.568 113.79 412.31 110.094 413.79 106.67C415.1 103.572 417.2 100.872 419.88 98.84C422.447 96.9423 425.568 95.9441 428.76 96C430.361 95.9155 431.961 96.1663 433.46 96.7363C434.958 97.3063 436.32 98.1829 437.46 99.31C439.587 101.517 440.65 104.563 440.65 108.45C440.697 112.183 439.954 115.884 438.47 119.31C437.16 122.408 435.06 125.108 432.38 127.14C429.813 129.041 426.693 130.046 423.5 130C421.897 130.08 420.295 129.824 418.797 129.249C417.299 128.674 415.938 127.792 414.8 126.66ZM428.93 121.19C430.326 119.47 431.348 117.478 431.93 115.34C432.585 113.15 432.922 110.876 432.93 108.59C433.062 106.93 432.605 105.277 431.64 103.92C431.189 103.406 430.627 103.001 429.996 102.735C429.366 102.47 428.683 102.352 428 102.39C427.086 102.396 426.186 102.611 425.368 103.019C424.55 103.426 423.836 104.015 423.28 104.74C421.88 106.458 420.858 108.451 420.28 110.59C419.624 112.777 419.287 115.047 419.28 117.33C419.15 118.993 419.607 120.649 420.57 122.01C421.021 122.524 421.583 122.929 422.214 123.195C422.844 123.46 423.527 123.578 424.21 123.54C425.124 123.534 426.024 123.319 426.842 122.911C427.66 122.504 428.374 121.915 428.93 121.19Z" fill="white"/>
<path d="M60 162.21L53.56 194.41H46.15L51.25 168.29H36.72L31.57 194.41H24.21L30.65 162.21H60Z" fill="white"/>
<path d="M69.75 193.22C67.4905 192.152 65.6001 190.436 64.32 188.29C63.036 186.078 62.3823 183.557 62.43 181C62.3814 177.546 63.2474 174.141 64.94 171.13C66.5914 168.223 69.0138 165.828 71.94 164.21C75.1186 162.481 78.6923 161.609 82.31 161.68C85.1979 161.607 88.0633 162.206 90.68 163.43C92.9371 164.496 94.8269 166.209 96.11 168.35C97.3934 170.566 98.0469 173.09 98 175.65C98.0473 179.1 97.1813 182.502 95.49 185.51C93.8417 188.422 91.4188 190.821 88.49 192.44C85.3117 194.173 81.7395 195.055 78.12 195C75.2302 195.059 72.3658 194.45 69.75 193.22ZM85 186.92C86.7568 185.802 88.1746 184.225 89.1 182.36C90.0578 180.399 90.5441 178.242 90.52 176.06C90.57 174.975 90.391 173.892 89.9947 172.88C89.5985 171.869 88.9938 170.952 88.22 170.19C86.4221 168.633 84.0835 167.846 81.71 168C79.5721 167.945 77.4635 168.506 75.6354 169.616C73.8074 170.725 72.3372 172.338 71.4 174.26C70.4383 176.219 69.9518 178.378 69.98 180.56C69.927 181.644 70.1046 182.727 70.5011 183.737C70.8976 184.747 71.5039 185.662 72.28 186.42C74.0676 187.974 76.3959 188.761 78.76 188.61C80.9599 188.664 83.128 188.077 85 186.92Z" fill="white"/>
<path d="M156.22 162.21L149.83 194.41H142.83L146.65 175.23L134.37 191H131L124.37 175L120.51 194.41H113.51L119.95 162.21H126.02L134.02 182.27L149.71 162.21H156.22Z" fill="white"/>
<path d="M166.23 193.22C163.938 192.158 162.011 190.443 160.69 188.29C159.372 186.083 158.7 183.55 158.75 180.98C158.701 177.526 159.567 174.121 161.26 171.11C162.927 168.194 165.371 165.799 168.32 164.19C171.524 162.461 175.12 161.589 178.76 161.66C181.382 161.608 183.985 162.109 186.4 163.13C188.466 163.991 190.213 165.472 191.4 167.37L186 171.78C184.28 169.273 181.69 168.017 178.23 168.01C176.029 167.965 173.86 168.541 171.97 169.67C170.178 170.753 168.721 172.31 167.76 174.17C166.754 176.134 166.242 178.314 166.27 180.52C166.217 181.618 166.401 182.714 166.81 183.734C167.219 184.754 167.843 185.673 168.64 186.43C170.49 187.986 172.868 188.77 175.28 188.62C176.891 188.653 178.491 188.336 179.968 187.692C181.446 187.049 182.767 186.092 183.84 184.89L188.26 189.4C185.093 193.133 180.563 195 174.67 195C171.758 195.053 168.872 194.444 166.23 193.22Z" fill="white"/>
<path d="M213.77 178L221.31 194.42H213.31L207.51 181.42H202L199.38 194.42H192L198.44 162.22H205.89L203.27 175.22H208.19L219.27 162.22H227.65L213.77 178Z" fill="white"/>
</g>
<defs>
<clipPath id="clip0">
<rect width="454.14" height="206.65" fill="white"/>
</clipPath>
</defs>
</svg>
