<svg width="114" height="114" viewBox="0 0 114 114" fill="none" xmlns="http://www.w3.org/2000/svg">
<path d="M82.0378 87.5835C99.2006 73.5187 101.706 48.2117 87.6331 31.0585C73.5604 13.9054 48.239 11.4017 31.0761 25.4664C13.9133 39.5311 11.4082 64.8382 25.4808 81.9913C39.5535 99.1445 64.8749 101.648 82.0378 87.5835Z" fill="#0066A3" stroke="#0066A3" stroke-width="6" stroke-miterlimit="10"/>
<path d="M90.0673 75.5287C99.9948 55.6893 91.9505 31.563 72.0998 21.6411C52.2491 11.7192 28.1091 19.759 18.1817 39.5984C8.25418 59.4379 16.2985 83.5642 36.1492 93.4861C55.9999 103.408 80.1398 95.3681 90.0673 75.5287Z" fill="#FF7E13"/>
<g clip-path="url(#clip0)">
<path d="M29.1923 82.0014C29.5268 80.3844 29.8187 78.9242 30.1318 77.4675C30.5518 75.5407 30.9397 73.6068 31.4451 71.705C31.5717 71.2708 31.5994 70.8138 31.5261 70.3675C31.4528 69.9213 31.2804 69.4972 31.0216 69.1264C22.0495 54.4956 28.7154 35.4058 44.7947 29.6219C48.4938 28.284 52.4401 27.7706 56.358 28.1176C60.2759 28.4647 64.0708 29.6637 67.4775 31.631C70.8842 33.5983 73.8205 36.2863 76.0811 39.5073C78.3418 42.7282 79.8724 46.4044 80.5658 50.2788C83.3595 65.4473 72.4407 80.0674 57.0767 81.7877C51.6208 82.4003 46.4995 81.3923 41.5881 79.0061C40.9641 78.7307 40.2652 78.6755 39.6058 78.8494C36.5095 79.7469 33.4452 80.7548 30.3525 81.6986C30.0571 81.8055 29.7404 81.866 29.1923 82.0014ZM33.6552 77.1506C36.1465 76.3813 38.3423 75.7259 40.5026 75.0136C40.8876 74.8663 41.3013 74.8096 41.7117 74.8479C42.1221 74.8862 42.5182 75.0184 42.8693 75.2344C47.9003 78.0675 53.8293 78.8495 59.422 77.4177C71.6221 74.4473 79.0995 62.3844 76.505 50.0473C73.9604 38.0093 62.0129 30.0457 49.8129 32.2396C33.7833 35.1422 25.6867 53.4022 34.3599 67.1782C35.1713 68.4711 35.4276 69.568 34.9934 71.0176C34.4453 72.9373 34.1179 74.9139 33.6552 77.1506Z" fill="white"/>
<path d="M40.8586 47.8912C40.8692 47.705 40.8692 47.5183 40.8586 47.332C40.8087 45.0348 42.1113 44.1266 44.0118 42.5988C44.6444 42.1385 45.3756 41.8324 46.1472 41.7048C47.0511 41.5267 47.7523 41.9149 48.0761 42.8908C48.4946 44.2975 49.0107 45.6732 49.6207 47.0079C50.4322 48.632 49.9766 49.8892 48.7274 50.9007C47.6597 51.7661 47.5992 52.6815 48.4035 53.5896C50.6457 56.1207 52.9329 58.6138 55.2652 61.0689C55.977 61.7812 56.7493 61.7812 57.5501 60.9727C58.6889 59.7938 60.0413 59.338 61.6322 60.1963C62.6999 60.7661 63.885 61.1187 64.9598 61.6743C66.9884 62.7428 67.2945 64.2885 65.8602 66.0871C64.6003 67.6648 62.9098 68.3487 60.9239 68.4519C58.269 68.6041 55.6305 67.9458 53.3576 66.5643C48.5673 63.6937 44.8126 59.8188 42.4957 54.7115C41.7839 53.1658 41.4778 51.4456 41.0507 49.7788C40.9687 49.4643 40.9198 49.142 40.9048 48.8172C40.8799 48.5145 40.8372 48.0764 40.8586 47.8912Z" fill="white"/>
</g>
<defs>
<clipPath id="clip0">
<rect width="54" height="54" fill="white" transform="translate(27 28)"/>
</clipPath>
</defs>
</svg>
