<svg xmlns="http://www.w3.org/2000/svg" width="56" height="56" viewBox="0 0 56 56">
    <g fill="none" fill-rule="evenodd">
        <path fill="#101828" fill-rule="nonzero" d="M24.5 45.5c.473 0 .875-.385.875-.875s-.402-.875-.875-.875-.875.385-.875.875.402.875.875.875"/>
        <path fill="#101828" fill-rule="nonzero" d="M37.625 45.5c-.297 0-.578-.017-.875-.053v1.698c0 .052-.035.087-.087.087H12.338c-.053.018-.088-.017-.088-.07V42h17.185c-.508-.542-.98-1.12-1.383-1.75H12.25V8.837c0-.052.035-.087.088-.087h24.325c.052 0 .087.035.087.088v13.947c.297-.018.578-.052.875-.052.297 0 .578.017.875.052V8.838C38.5 7.823 37.678 7 36.663 7H12.338c-1.015 0-1.838.822-1.838 1.838v38.325c0 1.015.822 1.837 1.838 1.837h24.325c1.015 0 1.837-.822 1.837-1.837v-1.698c-.297.017-.578.035-.875.035z"/>
        <path fill="#101828" fill-rule="nonzero" d="M37.625 26.25c4.34 0 7.875 3.535 7.875 7.875S41.965 42 37.625 42s-7.875-3.535-7.875-7.875 3.535-7.875 7.875-7.875zm0-1.75c-5.32 0-9.625 4.305-9.625 9.625s4.305 9.625 9.625 9.625 9.625-4.305 9.625-9.625-4.305-9.625-9.625-9.625z"/>
        <path fill="#101828" fill-rule="nonzero" d="M41.108 35L36.733 35 36.733 28.875 38.483 28.875 38.483 33.25 41.108 33.25z"/>
        <path d="M0 0H56V56H0z"/>
    </g>
</svg>
