<svg width="56" height="56" viewBox="0 0 56 56" fill="none" xmlns="http://www.w3.org/2000/svg">
<path fill-rule="evenodd" clip-rule="evenodd" d="M23.625 28C23.625 26.075 25.2 24.5 27.125 24.5C29.05 24.5 30.625 26.075 30.625 28C30.625 29.925 29.05 31.5 27.125 31.5C25.2 31.5 23.625 29.925 23.625 28ZM28.875 28C28.875 27.0375 28.0875 26.25 27.125 26.25C26.1625 26.25 25.375 27.0375 25.375 28C25.375 28.9625 26.1625 29.75 27.125 29.75C28.0875 29.75 28.875 28.9625 28.875 28Z" fill="#101828"/>
<path d="M25.375 28H23.625V22.96C23.6425 21.455 24.605 19.2325 27.195 19.2325C28.1925 19.2325 29.05 19.565 29.645 20.1775C30.66 21.2275 30.66 22.6975 30.6425 22.8725L28.8925 22.82L29.7675 22.8375L28.8925 22.82C28.8925 22.8025 28.8925 21.91 28.385 21.385C28.1225 21.1225 27.72 21 27.195 21C25.445 21 25.375 22.785 25.375 22.9775V28Z" fill="#101828"/>
<rect x="18.375" y="24.5" width="1.75" height="1.75" fill="#101828"/>
<path fill-rule="evenodd" clip-rule="evenodd" d="M38.5 16.625C38.5 15.1725 39.6725 14 41.125 14C42.5775 14 43.75 15.1725 43.75 16.625C43.75 18.0775 42.5775 19.25 41.125 19.25C39.6725 19.25 38.5 18.0775 38.5 16.625ZM42 16.625C42 16.135 41.615 15.75 41.125 15.75C40.635 15.75 40.25 16.135 40.25 16.625C40.25 17.115 40.635 17.5 41.125 17.5C41.615 17.5 42 17.115 42 16.625Z" fill="#101828"/>
<path fill-rule="evenodd" clip-rule="evenodd" d="M31.5 23.625C31.5 21.21 33.46 19.25 35.875 19.25C38.29 19.25 40.25 21.21 40.25 23.625V27.125C40.25 29.54 38.29 31.5 35.875 31.5C33.46 31.5 31.5 29.54 31.5 27.125V23.625ZM38.5 23.625C38.5 22.1725 37.3275 21 35.875 21C34.4225 21 33.25 22.1725 33.25 23.625V27.125C33.25 28.5775 34.4225 29.75 35.875 29.75C37.3275 29.75 38.5 28.5775 38.5 27.125V23.625Z" fill="#101828"/>
<path fill-rule="evenodd" clip-rule="evenodd" d="M31.5 37.625L24.5 42V33.25L31.5 37.625ZM28.1925 37.625L26.25 36.4V38.8325L28.1925 37.625Z" fill="#101828"/>
<path d="M8.75 31.5C8.75 30.7475 9.9575 29.715 12.25 28.7525V26.88C8.995 28.105 7 29.7325 7 31.5C7 34.965 14.5775 37.835 24.5 38.395V36.645C14.28 36.0675 8.75 33.11 8.75 31.5Z" fill="#101828"/>
<path d="M43.75 26.88V28.7525C46.0425 29.715 47.25 30.7475 47.25 31.5C47.25 33.005 42.35 35.735 33.25 36.5225V37.065V38.185V38.2725C42.2975 37.5025 49 34.755 49 31.5C49 29.7325 47.005 28.105 43.75 26.88Z" fill="#101828"/>
<path d="M21.5425 25.375C22.2775 24.7275 22.75 23.8 22.75 22.75C22.75 20.825 21.175 19.25 19.25 19.25C17.325 19.25 15.75 20.825 15.75 22.75H17.5C17.5 21.7875 18.2875 21 19.25 21C20.2125 21 21 21.7875 21 22.75C21 23.7125 20.2125 24.5 19.25 24.5V26.25C20.2125 26.25 21 27.0375 21 28C21 28.9625 20.2125 29.75 19.25 29.75C18.2875 29.75 17.5 28.9625 17.5 28H15.75C15.75 29.925 17.325 31.5 19.25 31.5C21.175 31.5 22.75 29.925 22.75 28C22.75 26.95 22.2775 26.0225 21.5425 25.375Z" fill="#101828"/>
</svg>
