<svg width="56" height="56" viewBox="0 0 56 56" fill="none" xmlns="http://www.w3.org/2000/svg">
<path d="M17.752 21.2594L31.7472 7.26414L32.9847 8.50156L18.9894 22.4968L17.752 21.2594Z" fill="#101828"/>
<path d="M33.25 14H31.5V8.75H26.25V7H33.25V14Z" fill="#101828"/>
<rect x="7" y="47.25" width="42" height="1.75" fill="#101828"/>
<path fill-rule="evenodd" clip-rule="evenodd" d="M38.5 17.5H45.5C46.4625 17.5 47.25 18.2875 47.25 19.25V47.25C47.25 48.2125 46.4625 49 45.5 49H38.5C37.5375 49 36.75 48.2125 36.75 47.25V19.25C36.75 18.2875 37.5375 17.5 38.5 17.5ZM45.5 47.25V19.25H38.5V47.25H45.5Z" fill="#101828"/>
<path fill-rule="evenodd" clip-rule="evenodd" d="M24.5 26.25H31.5C32.4625 26.25 33.25 27.0375 33.25 28V47.25C33.25 48.2125 32.4625 49 31.5 49H24.5C23.5375 49 22.75 48.2125 22.75 47.25V28C22.75 27.0375 23.5375 26.25 24.5 26.25ZM31.5 47.25V28H24.5V47.25H31.5Z" fill="#101828"/>
<path fill-rule="evenodd" clip-rule="evenodd" d="M10.5 35H17.5C18.4625 35 19.25 35.7875 19.25 36.75V47.25C19.25 48.2125 18.4625 49 17.5 49H10.5C9.5375 49 8.75 48.2125 8.75 47.25V36.75C8.75 35.7875 9.5375 35 10.5 35ZM17.5 47.25V36.75H10.5V47.25H17.5Z" fill="#101828"/>
</svg>
