<svg xmlns="http://www.w3.org/2000/svg" xmlns:xlink="http://www.w3.org/1999/xlink" width="1460" height="751" viewBox="0 0 1460 751">
    <defs>
        <path id="prefix__a" d="M0 0H1460V751H0z"/>
        <path id="prefix__c" d="M0.012 0.115H1173.551V828.654H0.012z"/>
    </defs>
    <g fill="none" fill-rule="evenodd">
        <mask id="prefix__b" fill="#fff">
            <use xlink:href="#prefix__a"/>
        </mask>
        <use fill="#272F3D" xlink:href="#prefix__a"/>
        <g mask="url(#prefix__b)">
            <g>
                <g transform="translate(270 -68.134) translate(0 1.134)">
                    <mask id="prefix__d" fill="#fff">
                        <use xlink:href="#prefix__c"/>
                    </mask>
                    <g mask="url(#prefix__d)">
                        <g fill-rule="nonzero">
                            <path fill="#70F" d="M2813.565 565.627l-51.797-111.724-.363.242c-1.025-2.522-1.944-5.078-3.108-7.566-34.588-74.196-116.61-103.632-183.211-65.744-.003.003-50 28.447-135.89 77.31C1915.974 755.808 60.764 1811.212 60.764 1811.212l1954.791 701.07 1348.04-766.878-550.03-1179.776z" transform="rotate(79 1915.382 -613.977)"/>
                            <path fill="#FF4F12" d="M4749.763 1230.58c-113.38-242.555-228.947-256.65-451.596-336.445-223.231-80.005-1523.103-545.86-1523.372-545.956-57.192-20.499-116.297-14.236-165.472 13.699-15.806 8.974-34.437 19.524-34.437 19.524 66.538-37.75 148.518-8.371 183.106 65.622.652 1.39 1.14 2.826 1.746 4.23.513.975 1.133 1.91 1.626 2.898l.017.008.086.174c.093.191 20.838 44.483 51.842 111.025l737.975 1578.722 955.127 2043.253 1285.414-728.709L4749.763 1230.58z" transform="rotate(79 1915.382 -613.977)"/>
                        </g>
                    </g>
                </g>
            </g>
        </g>
        <path fill="#70F" fill-rule="nonzero" d="M-633 -67.134L-633 761.866 332.655 761.866 600 -67.134z" mask="url(#prefix__b)"/>
    </g>
</svg>
