<svg width="478" height="314" viewBox="0 0 478 314" fill="none" xmlns="http://www.w3.org/2000/svg">
<path d="M94 0H71L63 8H86L94 0Z" fill="#FF4F12"/>
<path d="M98 0L90 8H170L178 0H98Z" fill="#FF4F12"/>
<path d="M194 306H87L95.0001 314H202L194 306Z" fill="#FF4F12"/>
<path d="M198 306L206 314H330L322 306H198Z" fill="#FF4F12"/>
<g filter="url(#filter0_d)">
<path d="M460 158L468 150L468 142L460 150L460 158Z" fill="#FF4F12"/>
<path d="M468 163L460 171L460 163L468 155L468 163Z" fill="#FF4F12"/>
<path d="M468 168L468 176L460 184L460 176L468 168Z" fill="#FF4F12"/>
<path d="M460 189L468 181L468 189L460 197L460 189Z" fill="#FF4F12"/>
<path d="M468 202L468 194L460 202L460 210L468 202Z" fill="#FF4F12"/>
</g>

<path d="M4.5 63.2071L56.2071 11.5H456.5V250.793L404.793 302.5H4.5V63.2071Z" stroke="#FF4F12"/>
<path d="M1 61V71V306H406L460 252V8H54L1 61Z" stroke="#FF4F12"/>
<path d="M401 0L393 8H460V75L468 67V0H401Z" fill="#FF4F12"/>
<defs>
<filter id="filter0_d" x="450" y="132" width="28" height="88" filterUnits="userSpaceOnUse" color-interpolation-filters="sRGB">
<feFlood flood-opacity="0" result="BackgroundImageFix"/>
<feColorMatrix in="SourceAlpha" type="matrix" values="0 0 0 0 0 0 0 0 0 0 0 0 0 0 0 0 0 0 127 0"/>
<feOffset/>
<feGaussianBlur stdDeviation="5"/>
<feColorMatrix type="matrix" values="0 0 0 0 0.498039 0 0 0 0 0.0156863 0 0 0 0 0.952941 0 0 0 0.42 0"/>
<feBlend mode="normal" in2="BackgroundImageFix" result="effect1_dropShadow"/>
<feBlend mode="normal" in="SourceGraphic" in2="effect1_dropShadow" result="shape"/>
</filter>
</defs>
</svg>
