<svg xmlns="http://www.w3.org/2000/svg" width="56" height="56" viewBox="0 0 56 56">
    <g fill="none" fill-rule="evenodd">
        <path fill="#101828" fill-rule="nonzero" d="M33.163 8.75c.052 0 .087.035.087.088v38.325c0 .052-.035.087-.087.087H8.838c-.053 0-.088-.035-.088-.087V8.837c0-.053.035-.088.088-.088h24.325zm0-1.75H8.838C7.822 7 7 7.822 7 8.838v38.325C7 48.178 7.822 49 8.838 49h24.325C34.178 49 35 48.178 35 47.163V8.837C35 7.822 34.178 7 33.163 7z"/>
        <path fill="#101828" fill-rule="nonzero" d="M21 45.5c.473 0 .875-.385.875-.875s-.402-.875-.875-.875-.875.385-.875.875.402.875.875.875M7 40.25H35V42H7zM43.33 12.285l-1.032 1.435c3.027 2.59 4.952 6.422 4.952 10.693 0 4.287-1.925 8.12-4.953 10.692l1.033 1.435c3.465-2.887 5.688-7.262 5.688-12.127-.018-4.866-2.223-9.223-5.688-12.128z"/>
        <path fill="#101828" fill-rule="nonzero" d="M41.633 15.873L40.6 17.308c1.925 1.767 3.15 4.287 3.15 7.105 0 2.817-1.225 5.354-3.15 7.122l1.032 1.435c2.363-2.082 3.868-5.145 3.868-8.557 0-3.396-1.505-6.458-3.867-8.54z"/>
        <path fill="#101828" fill-rule="nonzero" d="M39.883 19.53l-1.05 1.453c.875.944 1.417 2.187 1.417 3.552 0 1.33-.508 2.52-1.313 3.448l1.05 1.47C41.23 28.192 42 26.46 42 24.535c0-1.96-.822-3.727-2.117-5.005z"/>
        <path d="M0 0H56V56H0z"/>
    </g>
</svg>
