<svg xmlns="http://www.w3.org/2000/svg" width="56" height="56" viewBox="0 0 56 56">
    <g fill="none" fill-rule="evenodd">
        <g fill="#101828" fill-rule="nonzero">
            <path d="M4.077 41.528l-.892-1.505C9.642 36.206 7.053 29.4 4.952 25.69l-3.237-5.688C-1.838 13.739.332 5.723 6.563 2.119 12.828-1.506 20.877.63 24.517 6.877l3.203 5.495c2.17 3.71 6.773 9.38 13.335 5.582l.875 1.505L4.078 41.528zM13.125 2.1c-1.943 0-3.902.49-5.688 1.54-5.39 3.132-7.28 10.08-4.2 15.505l3.238 5.688c2.695 4.725 3.255 8.96 1.785 12.25l27.755-16.188c-3.64-.35-7.088-2.957-9.8-7.63L23.012 7.77c-2.117-3.64-5.95-5.67-9.887-5.67z" transform="translate(7 7)"/>
            <path d="M22.698 40.093c-3.5 0-6.93-1.82-8.803-5.058l1.523-.875c2.327 4.008 7.49 5.39 11.497 3.063 1.943-1.12 3.325-2.94 3.902-5.11.578-2.17.28-4.428-.857-6.37l1.523-.875c1.364 2.345 1.732 5.092 1.032 7.7-.7 2.625-2.38 4.812-4.725 6.177-1.61.91-3.36 1.348-5.092 1.348z" transform="translate(7 7)"/>
        </g>
        <path d="M0 0H56V56H0z"/>
    </g>
</svg>
