<svg xmlns="http://www.w3.org/2000/svg" xmlns:xlink="http://www.w3.org/1999/xlink" width="1460" height="500">
  <defs>
    <path id="a" d="M0 0h1460v500H0z"/>
  </defs>
  <g fill="none" fill-rule="evenodd">
    <mask id="b" fill="#fff">
      <use xlink:href="#a"/>
    </mask>
    <use fill="#7B939B" xlink:href="#a"/>
    <g fill-rule="nonzero" mask="url(#b)">
      <path fill="#272F3D" d="M1241.519 221.73l59.42-47.657-.19-.217c1.36-.977 2.754-1.89 4.076-2.958 39.437-31.776 46.166-90.259 15.025-130.63l-63.54-82.373a313116087.08 313116087.08 0 01-1112.067-1441.75L-15.84-90.128l630.29 817.151L1241.52 221.73z"/>
      <path fill="#101828" d="M1100.405 1598.81c128.883-104.086 122.143-183.333 140.344-342.071l124.52-1086.09c4.676-40.775-6.751-79.754-29.72-109.567-7.38-9.584-16.061-20.883-16.061-20.883 31.05 40.346 24.35 98.793-14.967 130.546-.74.598-1.526 1.09-2.278 1.66-.51.456-.984.98-1.505 1.425l-.002.014-.092.077c-.101.084-23.63 19.118-59 47.605L402.783 899l-1085.688 876.819L-83.402 2555.3l1183.806-956.492z"/>
    </g>
    <path fill="#272F3D" fill-rule="nonzero" d="M0 0v500h661L844 0z" mask="url(#b)"/>
  </g>
</svg>
