<svg width="80" height="80" viewBox="0 0 80 80" fill="none" xmlns="http://www.w3.org/2000/svg">
<path fill-rule="evenodd" clip-rule="evenodd" d="M40.05 51.15C38.575 53.1 36.85 54.425 35 54.85V45H40V42.5H35V35H40V34.45C40 33.75 40.175 33.1 40.475 32.5H35V25H43.95C44.35 26.575 44.575 28.275 44.75 30H47.275C47.125 28.275 46.9 26.575 46.525 25H53.1C53.825 26.575 54.325 28.25 54.625 30H57.175C55.375 18.675 45.575 10 33.75 10H33.725H33.7H33.65C20.575 10.05 10 20.675 10 33.75C10 46.825 20.575 57.45 33.65 57.5H33.7H33.725H33.75C37.55 57.5 41.15 56.575 44.325 55C42.125 54.925 40.35 53.275 40.05 51.15ZM51.75 22.5H45.85C44.75 19.025 43.175 16.075 41.275 13.9C45.625 15.55 49.3 18.6 51.75 22.5ZM43.225 22.5C41.425 17.2 38.425 13.425 35 12.65V22.5H43.225ZM26.125 13.95C24.225 16.1 22.65 19.05 21.575 22.5H15.75C18.175 18.625 21.8 15.6 26.125 13.95ZM20.9 25H14.4C13.35 27.3 12.725 29.85 12.575 32.5H19.95C20.05 29.875 20.35 27.35 20.9 25ZM12.575 35H19.975C20.05 37.625 20.375 40.15 20.925 42.5H14.425C13.35 40.2 12.725 37.65 12.575 35ZM21.575 45H15.75C18.175 48.875 21.8 51.9 26.125 53.55C24.225 51.4 22.65 48.45 21.575 45ZM32.5 54.875C29.05 54.15 26.025 50.35 24.2 45H32.5V54.875ZM23.475 42.5H32.5V35H22.45C22.55 37.65 22.9 40.175 23.475 42.5ZM32.5 32.5H22.45C22.525 29.85 22.9 27.325 23.475 25H32.5V32.5ZM24.2 22.5H32.5V12.625C29.05 13.375 26.025 17.175 24.2 22.5Z" fill="#FF4F12"/>
<path fill-rule="evenodd" clip-rule="evenodd" d="M45 32.5H67.5C68.875 32.5 70 33.625 70 35V50C70 51.375 68.875 52.5 67.5 52.5H45C43.625 52.5 42.5 51.375 42.5 50V35C42.5 33.625 43.625 32.5 45 32.5ZM67.5 50V35H45V50H67.5Z" fill="#FF4F12"/>
<rect x="62.5" y="32.5" width="2.5" height="10" fill="#FF4F12"/>
<rect x="57.5" y="32.5" width="2.5" height="10" fill="#FF4F12"/>
<rect x="47.5" y="32.5" width="2.5" height="10" fill="#FF4F12"/>
<rect x="52.5" y="32.5" width="2.5" height="10" fill="#FF4F12"/>
<path fill-rule="evenodd" clip-rule="evenodd" d="M50 50H62.5C63.875 50 65 51.125 65 52.5V55C65 56.375 63.875 57.5 62.5 57.5H50C48.625 57.5 47.5 56.375 47.5 55V52.5C47.5 51.125 48.625 50 50 50ZM62.5 55V52.5H50V55H62.5Z" fill="#FF4F12"/>
<path d="M55 70V60V57.5H52.5V70H55Z" fill="#FF4F12"/>
<path d="M60 57.5H57.5V60V70H60V57.5Z" fill="#FF4F12"/>
</svg>
