<svg width="126" height="40" viewBox="0 0 126 40" fill="none" xmlns="http://www.w3.org/2000/svg">
<path fill-rule="evenodd" clip-rule="evenodd" d="M38.1567 6.6001H43.4382L47.656 23.326C47.656 23.326 48.1135 25.2557 48.3031 26.2038C48.4928 25.2594 48.9503 23.289 48.9503 23.289L53.2834 6.6001H58.4533L62.7863 23.289C62.7863 23.289 63.2438 25.2557 63.4335 26.2038C63.6232 25.2594 64.0807 23.326 64.0807 23.326L68.2984 6.6001H73.5799L66.2453 33.089H60.8485L55.872 13.8668L50.8955 33.089H45.4988L38.1567 6.6001Z" fill="white"/>
<path d="M81.4167 14.3184H76.6299V33.0887H81.4167V14.3184Z" fill="white"/>
<path fill-rule="evenodd" clip-rule="evenodd" d="M99.2288 33.0886V22.2664C99.2288 19.8071 98.0498 18.2552 95.3905 18.2552C92.8836 18.2552 91.0202 20.4108 91.0202 23.5515V33.0886H86.2334V14.3182H91.0202V17.3441C92.4261 15.1886 94.6689 13.7886 97.4026 13.7886C101.431 13.7886 104.016 16.3997 104.016 20.296V33.0849H99.2288V33.0886Z" fill="white"/>
<path fill-rule="evenodd" clip-rule="evenodd" d="M108.315 6.6001H113.102V19.9964L118.841 14.3186H124.769L117.892 21.0149L125.684 33.0853H120.172L114.549 24.3075L113.105 25.7075V33.0853H108.319V6.6001H108.315Z" fill="white"/>
<path fill-rule="evenodd" clip-rule="evenodd" d="M75.9937 4.66289L77.8645 6.52585L75.9937 8.38882L78.2067 10.5888L82.2868 6.52585L78.2067 2.46289L75.9937 4.66289Z" fill="white"/>
<path fill-rule="evenodd" clip-rule="evenodd" d="M10.8678 0.344238L0.182129 10.985L9.22389 19.9887L0.182129 28.9961L10.8678 39.6368L30.599 19.9887L10.8678 0.344238Z" fill="white"/>
</svg>
