<svg width="80" height="80" viewBox="0 0 80 80" fill="none" xmlns="http://www.w3.org/2000/svg">
<path fill-rule="evenodd" clip-rule="evenodd" d="M35 27.5C35 24.75 37.25 22.5 40 22.5C42.75 22.5 45 24.75 45 27.5C45 30.25 42.75 32.5 40 32.5C37.25 32.5 35 30.25 35 27.5ZM42.5 27.5C42.5 26.125 41.375 25 40 25C38.625 25 37.5 26.125 37.5 27.5C37.5 28.875 38.625 30 40 30C41.375 30 42.5 28.875 42.5 27.5Z" fill="#FF4F12"/>
<path fill-rule="evenodd" clip-rule="evenodd" d="M52.5 40.125V27.5C52.5 16.4 40.075 10 40.075 10C40.075 10 27.5 16.2 27.5 27.5V40.1C21.875 40.65 17.5 44.85 17.5 50V65L27.5 61.675L30 60.85V58.225V42.5V40V35V27.5C30 19.75 37.225 14.6 40.05 12.875C42.875 14.65 50 19.875 50 27.5V35V40V42.5V58.2V60.825L62.5 65V50C62.5 44.875 58.125 40.675 52.5 40.125ZM27.5 59.05L20 61.55V50C20 46.225 23.275 43.125 27.5 42.6V59.05ZM52.5 59.05L60 61.55V50.025C60 46.25 56.725 43.15 52.5 42.625V59.05Z" fill="#FF4F12"/>
<rect x="38.75" y="47.575" width="2.5" height="22.425" fill="#FF4F12"/>
</svg>
