<svg width="80" height="80" viewBox="0 0 80 80" fill="none" xmlns="http://www.w3.org/2000/svg">
<path d="M57.5 35L56.3 40.75L55 35H52.5L51.175 40.75L50 35H47.5L49.9 44.75L49.975 45H52.5L53.725 39.225L55 45H57.5L60 35H57.5Z" fill="#FF4F12"/>
<path d="M43.75 35L42.55 40.75L41.25 35H38.75L37.425 40.75L36.25 35H33.75L36.15 44.75L36.225 45H38.75L39.975 39.225L41.25 45H43.75L46.25 35H43.75Z" fill="#FF4F12"/>
<path d="M30 35L28.8 40.75L27.5 35H25L23.675 40.75L22.5 35H20L22.4 44.75L22.475 45H25L26.225 39.225L27.5 45H30L32.5 35H30Z" fill="#FF4F12"/>
<path fill-rule="evenodd" clip-rule="evenodd" d="M39.975 10H40C56.575 10 70.025 23.425 70.025 40C70.025 56.575 56.6 70 40.025 70H40H39.975H39.9C23.375 69.925 10 56.525 10 40C10 23.475 23.375 10.075 39.875 10H39.95H39.975ZM55.375 26.125H63.7C60.325 20.375 54.925 15.95 48.475 13.85C51.4 16.7 53.8 20.975 55.375 26.125ZM41.25 12.625C46.075 13.425 50.325 18.7 52.75 26.125H41.25V12.625ZM38.75 26.125V12.625C33.875 13.375 29.6 18.65 27.175 26.125H38.75ZM31.375 13.9C28.45 16.75 26.075 21 24.525 26.125H16.3C19.65 20.4 25 16.025 31.375 13.9ZM24.525 53.875H16.3C19.65 59.6 25 63.975 31.375 66.1C28.475 63.25 26.075 59 24.525 53.875ZM38.75 67.375C33.875 66.625 29.6 61.325 27.175 53.875H38.75V67.375ZM41.25 53.875V67.375C46.075 66.575 50.325 61.3 52.75 53.875H41.25ZM48.475 66.15C51.425 63.3 53.825 59.025 55.375 53.875H63.7C60.325 59.625 54.925 64.05 48.475 66.15ZM64.875 51.375H65C66.425 48.275 67.275 44.85 67.425 41.25H62.5V38.75H67.425C67.275 35.15 66.425 31.75 65 28.625H64.9H56.075H53.475H41.25H38.75H26.45H23.85H15C13.575 31.725 12.75 35.15 12.575 38.75H17.5V41.25H12.575C12.725 44.85 13.575 48.25 15 51.375H23.85H26.45H38.75H41.25H53.45H56.05H64.875Z" fill="#FF4F12"/>
</svg>
