<svg width="56" height="56" viewBox="0 0 56 56" fill="none" xmlns="http://www.w3.org/2000/svg">
<path fill-rule="evenodd" clip-rule="evenodd" d="M7 28.8925C7 19.705 14.4375 12.2675 23.625 12.2675C32.795 12.2675 40.25 19.6875 40.25 28.875C40.25 38.0625 32.8125 45.5 23.625 45.5C14.4375 45.5 7 38.08 7 28.8925ZM38.5 28.8925C38.5 20.685 31.8325 14.0175 23.625 14.0175C15.4175 14.0175 8.75 20.6675 8.75 28.875C8.75 37.0825 15.4175 43.75 23.625 43.75C31.815 43.75 38.5 37.1 38.5 28.8925Z" fill="#101828"/>
<path fill-rule="evenodd" clip-rule="evenodd" d="M40.25 14.875C40.25 12.46 42.21 10.5 44.625 10.5C47.04 10.5 49 12.46 49 14.875C49 17.29 47.04 19.25 44.625 19.25C42.21 19.25 40.25 17.29 40.25 14.875ZM47.25 14.875C47.25 13.4225 46.0775 12.25 44.625 12.25C43.1725 12.25 42 13.4225 42 14.875C42 16.3275 43.1725 17.5 44.625 17.5C46.0775 17.5 47.25 16.3275 47.25 14.875Z" fill="#101828"/>
</svg>
