<svg width="184" height="40" viewBox="0 0 184 40" fill="none" xmlns="http://www.w3.org/2000/svg">
<path fill-rule="evenodd" clip-rule="evenodd" d="M10.1621 8.31913C15.6429 5.77121 21.5866 2.96174 27.0762 0.431455C28.8615 -0.389933 30.8996 -0.0299331 32.2073 1.43799C34.3938 3.89333 40.7401 11.4519 41.8039 12.7052C42.8692 13.9616 43.3879 15.406 43.3835 17.0561C43.3732 21.0044 43.3791 24.9511 43.3791 28.8994C43.3791 31.0476 42.4034 32.5846 40.4653 33.4927C36.5788 35.3147 32.6849 37.125 28.7939 38.9368C26.9234 39.8096 25.0088 39.9492 23.0457 39.285C23.7393 39.382 25.5745 39.2953 25.501 36.9119C25.5936 34.1774 25.5437 25.8636 25.5437 25.8636C25.5877 24.0166 25.0352 22.0652 23.6628 20.4886C21.5043 18.0112 13.9252 9.24925 13.6548 8.9495C12.1517 7.44484 10.1621 8.31913 10.1621 8.31913Z" fill="#7700FF"/>
<path fill-rule="evenodd" clip-rule="evenodd" d="M25.501 36.9124C25.5951 34.1764 25.5436 25.8641 25.5436 25.8641C25.5466 25.7524 25.5392 25.6393 25.5378 25.5276C24.7575 25.2411 20.3303 23.6394 19.9482 23.494C18.8565 23.0752 17.3768 22.3199 17.3768 20.6169C17.3768 18.1219 17.3797 15.7238 17.3827 13.2318C17.3797 13.2274 17.3768 13.2244 17.3739 13.2215C16.8934 12.666 13.6754 8.96907 13.6563 8.9485C12.1531 7.44678 10.1621 8.3196 10.1621 8.3196L2.47867 11.9505C0.975488 12.6469 0.0115694 14.1457 0.00716127 15.8017C-5.27129e-05 19.5443 -0.00900199 26.1212 0.0203858 28.6691C0.036549 30.0504 0.697773 31.051 2.09516 31.5418C4.42708 32.3617 22.9766 39.2649 23.0457 39.2855C23.7392 39.381 25.576 39.2958 25.501 36.9124Z" fill="#FF4F12"/>
<path fill-rule="evenodd" clip-rule="evenodd" d="M67.2464 11.8018L60.5078 26.6955C59.1956 29.6049 57.832 30.5232 55.6559 30.5232C54.451 30.5232 53.4547 30.2881 52.8773 30.0515V26.2767C53.7163 26.6955 54.5817 26.957 55.5515 26.957C56.3641 26.957 56.9151 26.669 57.3604 25.6728L57.7013 24.9131L51.042 11.8018H54.9491L59.4851 20.8488L63.4701 11.8018H67.2464Z" fill="black"/>
<path fill-rule="evenodd" clip-rule="evenodd" d="M66.9531 17.1514H71.279L74.8717 26.2763L78.4643 17.1514H82.7917V30.1569H79.6442V21.9239L76.1574 30.1569H73.5859L70.0991 21.9239V30.1569H66.9531V17.1514Z" fill="black"/>
<path fill-rule="evenodd" clip-rule="evenodd" d="M85.0918 17.1514H88.3964V22.0033H93.7979V17.1514H97.1026V30.1569H93.7979V24.8862H88.3964V30.1569H85.0918V17.1514Z" fill="black"/>
<path fill-rule="evenodd" clip-rule="evenodd" d="M111.91 30.1569H115.215V17.1514H111.91V30.1569ZM105.094 27.6399C106.692 27.6399 107.296 26.8273 107.296 25.7781C107.296 24.729 106.692 23.9164 105.094 23.9164H102.709V27.6399H105.094ZM99.4043 17.1514H102.709V21.3994H105.33C108.372 21.3994 110.495 22.8408 110.495 25.7781C110.495 28.7154 108.372 30.1569 105.33 30.1569H99.4043V17.1514Z" fill="black"/>
<path fill-rule="evenodd" clip-rule="evenodd" d="M120.637 12.4043H122.63C122.63 13.0347 122.995 13.5328 123.626 13.5328C124.255 13.5328 124.624 13.0347 124.624 12.4043H126.615C126.615 14.1088 125.408 15.3681 123.626 15.3681C121.842 15.3681 120.637 14.1088 120.637 12.4043ZM117.518 17.1504H120.665V25.7243L126.328 17.1504H129.735V30.156H126.59V21.5821L120.925 30.156H117.518V17.1504Z" fill="black"/>
<path fill-rule="evenodd" clip-rule="evenodd" d="M147.033 27.1672V20.1406H142.889L142.731 22.7355C142.575 25.1747 142.365 26.1974 141.84 27.1672H147.033ZM137.276 27.1672H138.721C139.272 26.1974 139.691 24.991 139.821 22.6312L140.136 17.1519H150.336V27.1672H152.302V33.1976H149.314V30.1559H140.268V33.1976H137.276V27.1672Z" fill="black"/>
<path fill-rule="evenodd" clip-rule="evenodd" d="M163.121 23.6545C163.121 21.2683 161.313 19.8782 159.372 19.8782C157.432 19.8782 155.622 21.2683 155.622 23.6545C155.622 26.0394 157.432 27.4294 159.372 27.4294C161.313 27.4294 163.121 26.0394 163.121 23.6545ZM159.372 30.5239C155.805 30.5239 152.266 28.2155 152.266 23.6545C152.266 19.0921 155.805 16.7837 159.372 16.7837C162.938 16.7837 166.478 19.0921 166.478 23.6545C166.478 28.2155 162.938 30.5239 159.372 30.5239Z" fill="black"/>
<path fill-rule="evenodd" clip-rule="evenodd" d="M167.779 17.1514H172.105L175.699 26.2763L179.29 17.1514H183.618V30.1569H180.472V21.9239L176.984 30.1569H174.414L170.927 21.9239V30.1569H167.779V17.1514Z" fill="black"/>
</svg>
